<svg id="logo" xmlns="http://www.w3.org/2000/svg" viewBox="0 0 391 48.29"><defs><style>.cls-1{fill:#06d0be;}.cls-2{fill:#ccc;}.cls-3{fill:#333;}</style></defs><title>лохотип</title><rect class="cls-1" x="57.94" y="16.95" width="5.94" height="5.94" rx="1.03"/><rect class="cls-1" x="64.98" y="16.95" width="5.94" height="5.94" rx="1.03"/><rect class="cls-1" x="72.07" y="24.08" width="5.94" height="5.94" rx="1.03"/><rect class="cls-1" x="79.17" y="16.95" width="5.94" height="5.94" rx="1.03"/><rect class="cls-1" x="86.2" y="16.95" width="5.94" height="5.94" rx="1.03"/><rect class="cls-1" x="57.94" y="24.08" width="5.94" height="5.94" rx="1.03"/><rect class="cls-1" x="86.32" y="24.08" width="5.94" height="5.94" rx="1.03"/><rect class="cls-1" x="185.31" y="16.95" width="5.94" height="5.94" rx="1.03"/><rect class="cls-1" x="192.34" y="16.95" width="5.94" height="5.94" rx="1.03"/><rect class="cls-1" x="199.44" y="24.08" width="5.94" height="5.94" rx="1.03"/><rect class="cls-1" x="206.54" y="16.95" width="5.94" height="5.94" rx="1.03"/><rect class="cls-1" x="213.57" y="16.95" width="5.94" height="5.94" rx="1.03"/><rect class="cls-1" x="185.31" y="24.08" width="5.94" height="5.94" rx="1.03"/><rect class="cls-1" x="213.68" y="24.08" width="5.94" height="5.94" rx="1.03"/><rect class="cls-1" x="100.4" y="16.95" width="5.94" height="5.94" rx="1.03"/><rect class="cls-1" x="100.4" y="24.08" width="5.94" height="5.94" rx="1.03"/><rect class="cls-1" x="108.03" y="24.08" width="5.94" height="5.94" rx="1.03"/><rect class="cls-1" x="115.53" y="24.08" width="5.94" height="5.94" rx="1.03"/><rect class="cls-1" x="129.01" y="16.95" width="5.94" height="5.94" rx="1.03"/><rect class="cls-1" x="129.01" y="24.08" width="5.94" height="5.94" rx="1.03"/><rect class="cls-1" x="149.99" y="24.08" width="5.94" height="5.94" rx="1.03" transform="translate(125.91 180) rotate(-90)"/><rect class="cls-1" x="157.11" y="24.08" width="5.94" height="5.94" rx="1.03" transform="translate(133.03 187.13) rotate(-90)"/><rect class="cls-1" x="164.24" y="24.08" width="5.94" height="5.94" rx="1.03" transform="translate(140.16 194.25) rotate(-90)"/><rect class="cls-1" x="235.69" y="24.08" width="5.94" height="5.94" rx="1.03" transform="translate(211.62 265.71) rotate(-90)"/><rect class="cls-1" x="242.82" y="24.08" width="5.94" height="5.94" rx="1.03" transform="translate(218.74 272.83) rotate(-90)"/><rect class="cls-1" x="249.94" y="24.08" width="5.94" height="5.94" rx="1.03" transform="translate(225.87 279.96) rotate(-90)"/><rect class="cls-1" x="142.92" y="16.95" width="5.94" height="5.94" rx="1.03"/><rect class="cls-1" x="142.92" y="24.08" width="5.94" height="5.94" rx="1.03"/><rect class="cls-1" x="171.17" y="16.95" width="5.94" height="5.94" rx="1.03"/><rect class="cls-1" x="228.63" y="16.95" width="5.94" height="5.94" rx="1.03"/><rect class="cls-1" x="228.63" y="24.08" width="5.94" height="5.94" rx="1.03"/><rect class="cls-1" x="257.13" y="16.95" width="5.94" height="5.94" rx="1.03"/><rect class="cls-1" x="257.13" y="24.08" width="5.94" height="5.94" rx="1.03"/><rect class="cls-1" x="360.36" y="24.08" width="5.94" height="5.94" rx="1.03" transform="translate(336.28 390.38) rotate(-90)"/><rect class="cls-1" x="367.49" y="24.08" width="5.94" height="5.94" rx="1.03" transform="translate(343.41 397.5) rotate(-90)"/><rect class="cls-1" x="374.61" y="24.08" width="5.94" height="5.94" rx="1.03" transform="translate(350.53 404.63) rotate(-90)"/><rect class="cls-1" x="353.3" y="16.95" width="5.94" height="5.94" rx="1.03"/><rect class="cls-1" x="353.3" y="24.08" width="5.94" height="5.94" rx="1.03"/><rect class="cls-1" x="381.8" y="16.95" width="5.94" height="5.94" rx="1.03"/><rect class="cls-1" x="381.8" y="24.08" width="5.94" height="5.94" rx="1.03"/><rect class="cls-1" x="270.97" y="16.95" width="5.94" height="5.94" rx="1.03"/><rect class="cls-1" x="270.97" y="24.08" width="5.94" height="5.94" rx="1.03"/><rect class="cls-1" x="326.94" y="16.95" width="5.94" height="5.94" rx="1.03"/><rect class="cls-1" x="326.94" y="24.08" width="5.94" height="5.94" rx="1.03"/><rect class="cls-2" x="57.94" y="9.83" width="5.94" height="5.94" rx="1.03"/><rect class="cls-2" x="57.94" y="31.2" width="5.94" height="5.94" rx="1.03"/><rect class="cls-2" x="57.94" y="38.33" width="5.94" height="5.94" rx="1.03"/><rect class="cls-2" x="86.32" y="9.83" width="5.94" height="5.94" rx="1.03"/><rect class="cls-2" x="86.32" y="31.2" width="5.94" height="5.94" rx="1.03"/><rect class="cls-2" x="86.32" y="38.33" width="5.94" height="5.94" rx="1.03"/><rect class="cls-3" x="24.65" y="18.64" width="13.07" height="13.07" rx="1.03"/><rect class="cls-3" x="40.27" y="2.95" width="13.07" height="13.07" rx="1.03"/><rect class="cls-3" x="9.09" y="34.32" width="13.07" height="13.07" rx="1.03"/><rect class="cls-3" x="24.65" y="34.32" width="13.07" height="13.07" rx="1.03"/><rect class="cls-3" x="40.2" y="18.64" width="13.07" height="13.07" rx="1.03"/><rect class="cls-3" x="40.2" y="34.32" width="13.07" height="13.07" rx="1.03"/><rect class="cls-1" x="23.23" y="16.89" width="13.07" height="13.07" rx="1.03"/><rect class="cls-1" x="38.86" y="1.2" width="13.07" height="13.07" rx="1.03"/><rect class="cls-1" x="7.67" y="32.57" width="13.07" height="13.07" rx="1.03"/><rect class="cls-1" x="23.23" y="32.57" width="13.07" height="13.07" rx="1.03"/><rect class="cls-1" x="38.78" y="16.89" width="13.07" height="13.07" rx="1.03"/><rect class="cls-1" x="38.78" y="32.57" width="13.07" height="13.07" rx="1.03"/><rect class="cls-2" x="185.31" y="9.83" width="5.94" height="5.94" rx="1.03"/><rect class="cls-2" x="185.31" y="31.2" width="5.94" height="5.94" rx="1.03"/><rect class="cls-2" x="185.31" y="38.33" width="5.94" height="5.94" rx="1.03"/><rect class="cls-2" x="213.68" y="9.83" width="5.94" height="5.94" rx="1.03"/><rect class="cls-2" x="213.68" y="31.2" width="5.94" height="5.94" rx="1.03"/><rect class="cls-2" x="213.68" y="38.33" width="5.94" height="5.94" rx="1.03"/><rect class="cls-2" x="100.4" y="9.83" width="5.94" height="5.94" rx="1.03"/><rect class="cls-2" x="100.4" y="31.2" width="5.94" height="5.94" rx="1.03"/><rect class="cls-2" x="121.44" y="31.2" width="5.94" height="5.94" rx="1.03"/><rect class="cls-2" x="100.4" y="38.33" width="5.94" height="5.94" rx="1.03"/><rect class="cls-2" x="108.03" y="38.33" width="5.94" height="5.94" rx="1.03"/><rect class="cls-2" x="115.53" y="38.33" width="5.94" height="5.94" rx="1.03"/><rect class="cls-2" x="129.01" y="9.83" width="5.94" height="5.94" rx="1.03"/><rect class="cls-2" x="149.99" y="9.83" width="5.94" height="5.94" rx="1.03" transform="translate(140.16 165.75) rotate(-90)"/><rect class="cls-2" x="157.11" y="9.83" width="5.94" height="5.94" rx="1.03" transform="translate(147.28 172.88) rotate(-90)"/><rect class="cls-2" x="164.24" y="9.83" width="5.94" height="5.94" rx="1.03" transform="translate(154.41 180) rotate(-90)"/><rect class="cls-2" x="149.99" y="38.33" width="5.94" height="5.94" rx="1.03" transform="translate(111.66 194.25) rotate(-90)"/><rect class="cls-2" x="157.11" y="38.33" width="5.94" height="5.94" rx="1.03" transform="translate(118.78 201.38) rotate(-90)"/><rect class="cls-2" x="164.24" y="38.33" width="5.94" height="5.94" rx="1.03" transform="translate(125.91 208.5) rotate(-90)"/><rect class="cls-2" x="129.01" y="31.2" width="5.94" height="5.94" rx="1.03"/><rect class="cls-2" x="129.01" y="38.33" width="5.94" height="5.94" rx="1.03"/><rect class="cls-2" x="142.92" y="9.83" width="5.94" height="5.94" rx="1.03"/><rect class="cls-2" x="285.34" y="9.83" width="5.94" height="5.94" rx="1.03" transform="translate(275.51 301.11) rotate(-90)"/><rect class="cls-2" x="292.47" y="9.83" width="5.94" height="5.94" rx="1.03" transform="translate(282.64 308.23) rotate(-90)"/><rect class="cls-2" x="299.59" y="9.83" width="5.94" height="5.94" rx="1.03" transform="translate(289.76 315.36) rotate(-90)"/><rect class="cls-2" x="312.69" y="9.83" width="5.94" height="5.94" rx="1.03" transform="translate(302.87 328.46) rotate(-90)"/><rect class="cls-2" x="319.82" y="9.83" width="5.94" height="5.94" rx="1.03" transform="translate(309.99 335.58) rotate(-90)"/><rect class="cls-2" x="326.94" y="9.83" width="5.94" height="5.94" rx="1.03" transform="translate(317.12 342.71) rotate(-90)"/><rect class="cls-2" x="334.07" y="9.83" width="5.94" height="5.94" rx="1.03" transform="translate(324.24 349.83) rotate(-90)"/><rect class="cls-2" x="341.19" y="9.83" width="5.94" height="5.94" rx="1.03" transform="translate(331.37 356.96) rotate(-90)"/><rect class="cls-2" x="278.28" y="9.83" width="5.94" height="5.94" rx="1.03"/><rect class="cls-2" x="285.34" y="38.33" width="5.94" height="5.94" rx="1.03" transform="translate(247.01 329.61) rotate(-90)"/><rect class="cls-2" x="292.47" y="38.33" width="5.94" height="5.94" rx="1.03" transform="translate(254.14 336.73) rotate(-90)"/><rect class="cls-2" x="299.59" y="38.33" width="5.94" height="5.94" rx="1.03" transform="translate(261.26 343.86) rotate(-90)"/><rect class="cls-2" x="278.28" y="38.33" width="5.94" height="5.94" rx="1.03"/><rect class="cls-2" x="235.69" y="9.83" width="5.94" height="5.94" rx="1.03" transform="translate(225.87 251.46) rotate(-90)"/><rect class="cls-2" x="242.82" y="9.83" width="5.94" height="5.94" rx="1.03" transform="translate(232.99 258.58) rotate(-90)"/><rect class="cls-2" x="249.94" y="9.83" width="5.94" height="5.94" rx="1.03" transform="translate(240.12 265.71) rotate(-90)"/><rect class="cls-2" x="235.69" y="38.33" width="5.94" height="5.94" rx="1.03" transform="translate(197.37 279.96) rotate(-90)"/><rect class="cls-2" x="242.82" y="38.33" width="5.94" height="5.94" rx="1.03" transform="translate(204.49 287.08) rotate(-90)"/><rect class="cls-2" x="249.94" y="38.33" width="5.94" height="5.94" rx="1.03" transform="translate(211.62 294.21) rotate(-90)"/><rect class="cls-2" x="142.92" y="31.2" width="5.94" height="5.94" rx="1.03"/><rect class="cls-2" x="171.17" y="31.2" width="5.94" height="5.94" rx="1.03"/><rect class="cls-2" x="142.92" y="38.33" width="5.94" height="5.94" rx="1.03"/><rect class="cls-2" x="228.63" y="31.2" width="5.94" height="5.94" rx="1.03"/><rect class="cls-2" x="257.13" y="38.33" width="5.94" height="5.94" rx="1.03"/><rect class="cls-2" x="360.36" y="9.83" width="5.94" height="5.94" rx="1.03" transform="translate(350.53 376.13) rotate(-90)"/><rect class="cls-2" x="367.49" y="9.83" width="5.94" height="5.94" rx="1.03" transform="translate(357.66 383.25) rotate(-90)"/><rect class="cls-2" x="374.61" y="9.83" width="5.94" height="5.94" rx="1.03" transform="translate(364.78 390.38) rotate(-90)"/><rect class="cls-2" x="360.36" y="38.33" width="5.94" height="5.94" rx="1.03" transform="translate(322.03 404.63) rotate(-90)"/><rect class="cls-2" x="367.49" y="38.33" width="5.94" height="5.94" rx="1.03" transform="translate(329.16 411.75) rotate(-90)"/><rect class="cls-2" x="374.61" y="38.33" width="5.94" height="5.94" rx="1.03" transform="translate(336.28 418.88) rotate(-90)"/><rect class="cls-2" x="353.3" y="31.2" width="5.94" height="5.94" rx="1.03"/><rect class="cls-2" x="381.8" y="38.33" width="5.94" height="5.94" rx="1.03"/><rect class="cls-2" x="270.97" y="31.2" width="5.94" height="5.94" rx="1.03"/><rect class="cls-2" x="326.94" y="31.2" width="5.94" height="5.94" rx="1.03"/><rect class="cls-2" x="326.94" y="38.33" width="5.94" height="5.94" rx="1.03"/></svg>