<svg id="_1_2ФИНАЛ" data-name="1+2ФИНАЛ" xmlns="http://www.w3.org/2000/svg" viewBox="0 0 1073.39 366"><defs><style>.cls-1,.cls-5,.cls-6,.cls-8,.cls-9{fill:none;}.cls-1{stroke:#4d4d4d;}.cls-1,.cls-7,.cls-9{stroke-miterlimit:10;}.cls-2{font-size:18px;fill:#333;font-family:'Open Sans', sans-serif;}.cls-3{fill:#4d4d4d;}.cls-4,.cls-7{fill:#0fb99b;}.cls-5,.cls-6,.cls-7,.cls-8,.cls-9{stroke:#0fb99b;}.cls-5,.cls-8{stroke-linecap:round;}.cls-5,.cls-6,.cls-8{stroke-linejoin:round;}.cls-8{stroke-width:4px;}</style></defs><title>3333</title><rect class="cls-1" x="498.31" y="10.83" width="79.17" height="79.17" rx="10.88"/><text class="cls-2" transform="translate(375.54 123.01)">Оплачиваемая корпоративная связь</text><rect class="cls-1" x="81.94" y="10.83" width="79.17" height="79.17" rx="10.88"/><text class="cls-2" transform="translate(6.94 123.01)">Пятилетний опыт работы </text><rect class="cls-1" x="498.31" y="235.19" width="79.17" height="79.17" rx="10.88"/><text class="cls-2" transform="translate(352.23 347.38)">Самостоятельное планирование времени</text><rect class="cls-1" x="914.68" y="10.83" width="79.17" height="79.17" rx="10.88"/><text class="cls-2" transform="translate(859.41 123.01)">Тренинги и обучения</text><rect class="cls-1" x="81.94" y="235.19" width="79.17" height="79.17" rx="10.88"/><text class="cls-2" transform="translate(13.04 347.38)">Техническая поддержка </text><rect class="cls-1" x="914.68" y="235.19" width="79.17" height="79.17" rx="10.88"/><circle class="cls-3" cx="939.19" cy="19.57" r="4.58"/><path class="cls-3" d="M950.61,43.29a.66.66,0,0,1,0,.14,1.66,1.66,0,0,1-3.31,0v0h0v-.15c0-5.67-1-10.51-2.51-12.34V60.13a2.56,2.56,0,1,1-5.12,0V42.19h-1V60.13a2.56,2.56,0,0,1-5.12,0V30.94c-1.46,1.83-2.51,6.67-2.51,12.34v.15h0v0a1.66,1.66,0,0,1-3.31,0s0-.09,0-.14c0-.26,0-.52,0-.78,0-8,2.26-14.43,5.17-16.74a2.75,2.75,0,0,1,1.72-.54h9.08a2.75,2.75,0,0,1,1.72.54c2.91,2.31,5.17,8.69,5.17,16.74C950.62,42.77,950.62,43,950.61,43.29Z"/><circle class="cls-4" cx="929.73" cy="42.72" r="4.58"/><path class="cls-4" d="M941.16,66.44v.15a1.65,1.65,0,0,1-3.3,0v0h0a.61.61,0,0,0,0-.14c0-5.68-1.05-10.51-2.51-12.35V83.28a2.57,2.57,0,0,1-5.13,0V65.35h-1V83.28a2.57,2.57,0,0,1-5.13,0V54.09c-1.46,1.84-2.51,6.67-2.51,12.35v.14h0v0a1.65,1.65,0,0,1-3.3,0v-.93c0-8,2.25-14.42,5.16-16.73a2.72,2.72,0,0,1,1.73-.55h9.07a2.72,2.72,0,0,1,1.73.55c2.91,2.31,5.16,8.68,5.16,16.73Z"/><circle class="cls-4" cx="953.86" cy="42.72" r="4.58"/><path class="cls-4" d="M965.28,66.44s0,.1,0,.15a1.66,1.66,0,0,1-1.66,1.65A1.64,1.64,0,0,1,962,66.61v0h0v-.14c0-5.68-1.05-10.51-2.51-12.35V83.28a2.56,2.56,0,0,1-5.12,0V65.35h-1V83.28a2.56,2.56,0,0,1-5.12,0V54.09c-1.47,1.84-2.51,6.67-2.51,12.35v.14h0v0a1.66,1.66,0,0,1-3.31,0,.76.76,0,0,1,0-.15c0-.26,0-.51,0-.78,0-8,2.26-14.42,5.16-16.73a2.72,2.72,0,0,1,1.73-.55h9.07a2.71,2.71,0,0,1,1.73.55c2.91,2.31,5.17,8.68,5.17,16.73C965.29,65.93,965.28,66.18,965.28,66.44Z"/><circle class="cls-4" cx="977.98" cy="42.72" r="4.58"/><path class="cls-4" d="M989.4,66.44a.76.76,0,0,1,0,.15,1.66,1.66,0,0,1-3.31,0v0h0v-.14c0-5.68-1.05-10.51-2.51-12.35V83.28a2.56,2.56,0,0,1-5.12,0V65.35h-1V83.28a2.56,2.56,0,0,1-5.12,0V54.09c-1.47,1.84-2.51,6.67-2.51,12.35v.14h0v0a1.66,1.66,0,0,1-3.31,0,.76.76,0,0,1,0-.15c0-.26,0-.51,0-.78,0-8,2.26-14.42,5.17-16.73a2.7,2.7,0,0,1,1.72-.55h9.08a2.7,2.7,0,0,1,1.72.55c2.91,2.31,5.17,8.68,5.17,16.73C989.41,65.93,989.41,66.18,989.4,66.44Z"/><text class="cls-2" transform="translate(840.5 347.38)">Работа в команде лучших<tspan x="111.43" y="21.6"> </tspan></text><path class="cls-4" d="M154.85,39.88l-32,10.87h0a4.27,4.27,0,0,1-2.69,0l-22.1-7.52A17.07,17.07,0,0,0,95.67,50c0,.34-.09.67-.11,1l.09.05a3.47,3.47,0,0,1,1.7,3A3.41,3.41,0,0,1,96,56.77a3,3,0,0,1-.71.42l.43,3.14L97.25,72H90.86l2-14.65A3.47,3.47,0,0,1,90.43,54a3.42,3.42,0,0,1,1.32-2.72A16.91,16.91,0,0,1,92,48.66,17.08,17.08,0,0,1,94.34,42l-6.13-2.09a.79.79,0,0,1,0-1.52l32-9.28.16,0a4.31,4.31,0,0,1,2.31,0l.16,0,32,9.28A.79.79,0,0,1,154.85,39.88Z"/><path class="cls-4" d="M141.46,59.41a6,6,0,0,1-.08.73l0,.11c-1.12,5.21-9.57,9.27-19.83,9.27s-18.64-4-19.81-9.21a4.9,4.9,0,0,1-.13-1l0-.84h0l.33-8.6a.73.73,0,0,1,.94-.66L108.77,51,121.31,55a.79.79,0,0,0,.43,0L134.28,51l5.89-1.85a.72.72,0,0,1,.93.66l.33,8.5v.11Z"/><path class="cls-5" d="M104.88,252.92a19.12,19.12,0,0,1,17.53-11.47"/><path class="cls-6" d="M122.21,241.45a19.12,19.12,0,0,1,17.53,11.47"/><path class="cls-4" d="M138.44,260.77c0,.39,0,.78-.05,1.16a6.69,6.69,0,0,1-.12,1,11.24,11.24,0,0,1-.48,2.36c-.07.24-.15.51-.24.75a2,2,0,0,1-.2.48,3.86,3.86,0,0,1-.29.75,11.25,11.25,0,0,1-1.08,2,4.36,4.36,0,0,1-.51.78,9.71,9.71,0,0,1-.65.86,8.91,8.91,0,0,1-.7.8c-.21.24-.45.48-.67.7a11.74,11.74,0,0,1-1.74,1.42c-.29.22-.58.41-.87.6s-.62.39-.94.56-.82.41-1.23.58a10.42,10.42,0,0,1-1.44.55c-.32.1-.63.17-.94.24a4.3,4.3,0,0,1-1,.24c-.41.08-.79.15-1.2.2l-.39,0a13.24,13.24,0,0,1-1.42.07,14.21,14.21,0,0,1-1.45-.07l-.67-.07c-.32,0-.6-.1-.92-.15a2.2,2.2,0,0,1-.43-.09,5.32,5.32,0,0,1-.85-.22,3.71,3.71,0,0,1-.74-.22,16,16,0,0,1-3.64-1.73c-.27-.17-.53-.36-.78-.53a8.71,8.71,0,0,1-.79-.63c-.36-.29-.7-.6-1-.92a16.81,16.81,0,0,1-1.78-2.09,8.87,8.87,0,0,1-.65-1,.37.37,0,0,1-.1-.17,7.86,7.86,0,0,1-.51-.89,16.32,16.32,0,0,1-1-2.46,56.58,56.58,0,0,0,10.56,7,3.74,3.74,0,0,0,3.64,2.87,3.58,3.58,0,0,0,1.69-.41,3.72,3.72,0,0,0-1.69-7,3.65,3.65,0,0,0-3.28,2,53.54,53.54,0,0,1-11.64-8.34,6.05,6.05,0,0,1,0-1,17,17,0,0,1,.12-1.9,11.76,11.76,0,0,1,.22-1.3.39.39,0,0,1,0-.15,9.14,9.14,0,0,1,.29-1.2,2.19,2.19,0,0,0,.1-.34c.17-.48.34-.94.53-1.4a15.46,15.46,0,0,1,1.47-2.72,14.21,14.21,0,0,1,.94-1.26,13.64,13.64,0,0,1,1-1.13,12.69,12.69,0,0,1,1.15-1,11.73,11.73,0,0,1,1.14-.86,12.17,12.17,0,0,1,1.78-1,5.94,5.94,0,0,1,.92-.43,1.51,1.51,0,0,1,.29-.13,4,4,0,0,1,.89-.33,6.75,6.75,0,0,1,.72-.24,11,11,0,0,1,2.36-.49,7.88,7.88,0,0,1,1-.12c.39,0,.77,0,1.16,0a13.24,13.24,0,0,1,1.42.07,11.55,11.55,0,0,1,1.35.19s0,0,0,0a15.5,15.5,0,0,1,6.49,2.73A9.79,9.79,0,0,1,133.3,249a2.55,2.55,0,0,1,.53.51c.34.33.66.67,1,1s.58.75.84,1.13a.65.65,0,0,0,.1.15,10.46,10.46,0,0,1,.65,1.09,11.71,11.71,0,0,1,.8,1.63c.19.46.36.92.53,1.4v0a15.06,15.06,0,0,1,.38,1.54,10.2,10.2,0,0,1,.22,1.25c0,.2.05.41.05.61C138.41,259.83,138.44,260.29,138.44,260.77Z"/><path class="cls-7" d="M103.26,260.59a18.24,18.24,0,0,0,.92,5.76,2.63,2.63,0,0,1-.48,0c-2.1-.15-3.64-3.26-3.4-7s2.09-6.63,4.22-6.51a2.23,2.23,0,0,1,.36,0A19,19,0,0,0,103.26,260.59Z"/><path class="cls-7" d="M141.36,260.59a18.24,18.24,0,0,1-.92,5.76,2.58,2.58,0,0,0,.48,0c2.1-.15,3.64-3.26,3.4-7s-2.09-6.63-4.22-6.51a2.23,2.23,0,0,0-.36,0A19,19,0,0,1,141.36,260.59Z"/><path class="cls-4" d="M151.77,308.11H93a102.46,102.46,0,0,1,2.84-12.7c2.37-8.39,2.27-8.25,3.67-10.69A17.68,17.68,0,0,1,102.3,281a.26.26,0,0,1,0-.08,18.19,18.19,0,0,1,10.29-5,18.71,18.71,0,0,0,19.53,0,18.19,18.19,0,0,1,10.29,5,.26.26,0,0,1,0,.08,17.68,17.68,0,0,1,2.75,3.68c1.4,2.44,1.3,2.3,3.67,10.69A102.46,102.46,0,0,1,151.77,308.11Z"/><path class="cls-4" d="M549.18,17.65H526.62a4.52,4.52,0,0,0-4.53,4.52V78.68a4.52,4.52,0,0,0,4.53,4.51h22.56a4.5,4.5,0,0,0,4.51-4.51V22.17A4.51,4.51,0,0,0,549.18,17.65Zm-14,3.78h5.54a.48.48,0,0,1,0,.95h-5.54a.48.48,0,1,1,0-.95Zm2.76,59.76a2.81,2.81,0,1,1,2.82-2.8A2.8,2.8,0,0,1,537.89,81.19Zm14.32-8.39a1.5,1.5,0,0,1-1.49,1.51H525.07a1.51,1.51,0,0,1-1.5-1.51V26.66a1.5,1.5,0,0,1,1.5-1.49h25.65a1.49,1.49,0,0,1,1.49,1.49Z"/><path class="cls-5" d="M562.31,254.74a31.6,31.6,0,1,1-6-5.63"/><line class="cls-8" x1="537.89" y1="274.78" x2="523.57" y2="262.33"/><line class="cls-8" x1="537.89" y1="274.78" x2="567.67" y2="243.19"/><rect class="cls-9" x="953.86" y="14.99" width="35.55" height="21.05" rx="5.16"/><path class="cls-4" d="M973.11,274.31a2.86,2.86,0,0,1,1.39,2.4,3,3,0,0,1-2.22,2.81,2.71,2.71,0,0,1,.82,1.93,2.82,2.82,0,0,1-2.09,2.66,3.18,3.18,0,0,1,1.27,2.64,3,3,0,0,1-1.86,2.94H950.14a10.65,10.65,0,0,0-4.17-1.64V290a1.47,1.47,0,0,1-1.47,1.48H934a1.48,1.48,0,0,1-1.48-1.48V272.17a1.48,1.48,0,0,1,1.48-1.48H944.5a1.47,1.47,0,0,1,1.47,1.48v.94c2.83-2.62,6.7-8.55,7.93-10.5a2.74,2.74,0,0,0,.41-1.36l.18-5.18a2.72,2.72,0,0,1,.74-1.79,1.7,1.7,0,0,1,.9-.49l.84-.16a2.82,2.82,0,0,1,1.12,0l.84.18a3,3,0,0,1,1.12.5,5.42,5.42,0,0,1,.68.57c.07.13.87,2.25,1.07,2.77,0,.08.05.16.08.24.14.53.33,3.21.37,3.31s-.67,4.6-1,6.73h11.44a3.2,3.2,0,0,1,.43,6.38Z"/></svg>