<svg id="людишки" xmlns="http://www.w3.org/2000/svg" xmlns:xlink="http://www.w3.org/1999/xlink" viewBox="0 0 1920 498.17"><defs><style>.cls-1{fill:#28bfad;}.cls-2{fill:#1c827f;}.cls-3{fill:#1c5969;}.cls-4{fill:#1d445d;}.cls-5{fill:#1d3354;}.cls-6{fill:#1d1543;}.cls-7{fill:url(#Безымянный_градиент_12);}.cls-8{font-size:24px;fill:#1a1a1a;font-family:MalgunGothicBold, Malgun Gothic;}.cls-9{fill:url(#Безымянный_градиент_15);}.cls-10{fill:url(#Безымянный_градиент_17);}.cls-11{fill:url(#Безымянный_градиент_19);}.cls-12{fill:url(#Безымянный_градиент_20);}.cls-13{fill:url(#Безымянный_градиент_21);}.cls-14{fill:none;stroke:#333;stroke-miterlimit:10;stroke-width:3px;}</style><linearGradient id="Безымянный_градиент_12" x1="360.76" y1="45.94" x2="1602.85" y2="45.94" gradientUnits="userSpaceOnUse"><stop offset="0" stop-color="#fff"/><stop offset="1" stop-color="#28bfad"/></linearGradient><linearGradient id="Безымянный_градиент_15" x1="438.92" y1="136.57" x2="1602.85" y2="136.57" gradientUnits="userSpaceOnUse"><stop offset="0" stop-color="#fff"/><stop offset="1" stop-color="#1c827f"/></linearGradient><linearGradient id="Безымянный_градиент_17" x1="526.92" y1="217.95" x2="1602.85" y2="217.95" gradientUnits="userSpaceOnUse"><stop offset="0" stop-color="#fff"/><stop offset="1" stop-color="#1c5969"/></linearGradient><linearGradient id="Безымянный_градиент_19" x1="614.92" y1="299.33" x2="1602.85" y2="299.33" gradientUnits="userSpaceOnUse"><stop offset="0" stop-color="#fff"/><stop offset="1" stop-color="#1d445d"/></linearGradient><linearGradient id="Безымянный_градиент_20" x1="702.92" y1="380.72" x2="1602.85" y2="380.72" gradientUnits="userSpaceOnUse"><stop offset="0" stop-color="#fff"/><stop offset="1" stop-color="#1d3354"/></linearGradient><linearGradient id="Безымянный_градиент_21" x1="784.93" y1="462.1" x2="1602.85" y2="462.1" gradientUnits="userSpaceOnUse"><stop offset="0" stop-color="#fff"/><stop offset="1" stop-color="#1d1543"/></linearGradient></defs><title>люди4_людишки</title><circle class="cls-1" cx="323.34" cy="10.78" r="8.36"/><path class="cls-1" d="M344.18,54.06a2.45,2.45,0,0,1,0,.27,3,3,0,0,1-6,0v0h0v-.27c0-10.35-1.91-19.17-4.58-22.52V84.79a4.68,4.68,0,0,1-9.35,0V52.06h-1.78V84.79a4.67,4.67,0,0,1-9.34,0V31.53c-2.68,3.35-4.58,12.17-4.58,22.52v.27h0v0a3,3,0,0,1-6,0,2.45,2.45,0,0,1,0-.27c0-.47,0-.94,0-1.42,0-14.69,4.12-26.32,9.43-30.53a4.9,4.9,0,0,1,3.14-1h16.56a4.93,4.93,0,0,1,3.15,1c5.31,4.21,9.43,15.84,9.43,30.53C344.2,53.12,344.19,53.59,344.18,54.06Z"/><circle class="cls-2" cx="323.34" cy="108.87" r="6.58"/><path class="cls-2" d="M339.76,143c0,.07,0,.14,0,.21a2.38,2.38,0,0,1-4.76,0v0h0V143c0-8.15-1.5-15.1-3.6-17.74v42a3.68,3.68,0,0,1-7.36,0V141.39h-1.41v25.77a3.68,3.68,0,1,1-7.36,0V125.21c-2.1,2.64-3.61,9.59-3.61,17.74v.21h0v0a2.38,2.38,0,0,1-4.75,0,1.48,1.48,0,0,1,0-.21c0-.37,0-.74,0-1.12,0-11.57,3.24-20.73,7.42-24a4,4,0,0,1,2.48-.78h13a3.91,3.91,0,0,1,2.48.78c4.18,3.32,7.43,12.48,7.43,24C339.77,142.22,339.76,142.59,339.76,143Z"/><circle class="cls-2" cx="367.34" cy="108.87" r="6.58"/><path class="cls-2" d="M383.76,143c0,.07,0,.14,0,.21a2.38,2.38,0,0,1-4.76,0v0h0V143c0-8.15-1.5-15.1-3.6-17.74v42a3.68,3.68,0,0,1-7.36,0V141.39h-1.41v25.77a3.68,3.68,0,1,1-7.36,0V125.21c-2.1,2.64-3.61,9.59-3.61,17.74v.21h0v0a2.38,2.38,0,0,1-4.75,0,1.48,1.48,0,0,1,0-.21c0-.37,0-.74,0-1.12,0-11.57,3.24-20.73,7.42-24a4,4,0,0,1,2.48-.78h13a3.91,3.91,0,0,1,2.48.78c4.18,3.32,7.43,12.48,7.43,24C383.77,142.22,383.76,142.59,383.76,143Z"/><circle class="cls-2" cx="411.34" cy="108.87" r="6.58"/><path class="cls-2" d="M427.76,143c0,.07,0,.14,0,.21a2.38,2.38,0,0,1-4.76,0v0h0V143c0-8.15-1.5-15.1-3.6-17.74v42a3.68,3.68,0,0,1-7.36,0V141.39h-1.41v25.77a3.68,3.68,0,1,1-7.36,0V125.21c-2.1,2.64-3.61,9.59-3.61,17.74v.21h0v0a2.38,2.38,0,0,1-4.75,0,1.48,1.48,0,0,1,0-.21c0-.37,0-.74,0-1.12,0-11.57,3.24-20.73,7.42-24a4,4,0,0,1,2.48-.78h13a3.91,3.91,0,0,1,2.48.78c4.18,3.32,7.43,12.48,7.43,24C427.77,142.22,427.76,142.59,427.76,143Z"/><circle class="cls-3" cx="323.34" cy="190.26" r="6.58"/><path class="cls-3" d="M339.76,224.34c0,.07,0,.15,0,.22a2.38,2.38,0,0,1-4.76,0v0h0v-.21c0-8.16-1.5-15.1-3.6-17.74v42a3.68,3.68,0,1,1-7.36,0V222.77h-1.41v25.78a3.68,3.68,0,1,1-7.36,0v-42c-2.1,2.64-3.61,9.58-3.61,17.74v.21h0v0a2.38,2.38,0,0,1-4.75,0,1.62,1.62,0,0,1,0-.22c0-.37,0-.74,0-1.11,0-11.57,3.24-20.74,7.42-24a3.9,3.9,0,0,1,2.48-.79h13a3.87,3.87,0,0,1,2.48.79c4.18,3.31,7.43,12.48,7.43,24C339.77,223.6,339.76,224,339.76,224.34Z"/><circle class="cls-3" cx="367.34" cy="190.26" r="6.58"/><path class="cls-3" d="M383.76,224.34c0,.07,0,.15,0,.22a2.38,2.38,0,0,1-4.76,0v0h0v-.21c0-8.16-1.5-15.1-3.6-17.74v42a3.68,3.68,0,1,1-7.36,0V222.77h-1.41v25.78a3.68,3.68,0,1,1-7.36,0v-42c-2.1,2.64-3.61,9.58-3.61,17.74v.21h0v0a2.38,2.38,0,0,1-4.75,0,1.62,1.62,0,0,1,0-.22c0-.37,0-.74,0-1.11,0-11.57,3.24-20.74,7.42-24a3.9,3.9,0,0,1,2.48-.79h13a3.87,3.87,0,0,1,2.48.79c4.18,3.31,7.43,12.48,7.43,24C383.77,223.6,383.76,224,383.76,224.34Z"/><circle class="cls-3" cx="411.34" cy="190.26" r="6.58"/><path class="cls-3" d="M427.76,224.34c0,.07,0,.15,0,.22a2.38,2.38,0,0,1-4.76,0v0h0v-.21c0-8.16-1.5-15.1-3.6-17.74v42a3.68,3.68,0,0,1-7.36,0V222.77h-1.41v25.78a3.68,3.68,0,0,1-7.36,0v-42c-2.1,2.64-3.61,9.58-3.61,17.74v.21h0v0a2.38,2.38,0,0,1-4.75,0,1.62,1.62,0,0,1,0-.22c0-.37,0-.74,0-1.11,0-11.57,3.24-20.74,7.42-24a3.9,3.9,0,0,1,2.48-.79h13a3.87,3.87,0,0,1,2.48.79c4.18,3.31,7.43,12.48,7.43,24C427.77,223.6,427.76,224,427.76,224.34Z"/><circle class="cls-3" cx="455.34" cy="190.26" r="6.58"/><path class="cls-3" d="M471.76,224.34c0,.07,0,.15,0,.22a2.38,2.38,0,0,1-4.76,0v0h0v-.21c0-8.16-1.5-15.1-3.6-17.74v42a3.68,3.68,0,0,1-7.36,0V222.77h-1.41v25.78a3.68,3.68,0,0,1-7.36,0v-42c-2.1,2.64-3.61,9.58-3.61,17.74v.21h0v0a2.38,2.38,0,0,1-4.75,0,1.62,1.62,0,0,1,0-.22c0-.37,0-.74,0-1.11,0-11.57,3.24-20.74,7.42-24a3.9,3.9,0,0,1,2.48-.79h13a3.87,3.87,0,0,1,2.48.79c4.18,3.31,7.43,12.48,7.43,24C471.77,223.6,471.76,224,471.76,224.34Z"/><circle class="cls-3" cx="499.34" cy="190.26" r="6.58"/><path class="cls-3" d="M515.76,224.34c0,.07,0,.15,0,.22a2.38,2.38,0,0,1-4.76,0v0h0v-.21c0-8.16-1.5-15.1-3.6-17.74v42a3.68,3.68,0,0,1-7.36,0V222.77h-1.41v25.78a3.68,3.68,0,0,1-7.36,0v-42c-2.1,2.64-3.61,9.58-3.61,17.74v.21h0v0a2.38,2.38,0,0,1-4.75,0,1.62,1.62,0,0,1,0-.22c0-.37,0-.74,0-1.11,0-11.57,3.24-20.74,7.42-24a3.9,3.9,0,0,1,2.48-.79h13a3.87,3.87,0,0,1,2.48.79c4.18,3.31,7.43,12.48,7.43,24C515.77,223.6,515.76,224,515.76,224.34Z"/><circle class="cls-4" cx="323.34" cy="271.64" r="6.58"/><path class="cls-4" d="M339.76,305.73c0,.07,0,.14,0,.21a2.38,2.38,0,0,1-4.76,0v0h0v-.21c0-8.15-1.5-15.1-3.6-17.74v41.95a3.68,3.68,0,0,1-7.36,0V304.15h-1.41v25.78a3.68,3.68,0,0,1-7.36,0V288c-2.1,2.64-3.61,9.59-3.61,17.74v.21h0v0a2.38,2.38,0,0,1-4.75,0,1.48,1.48,0,0,1,0-.21c0-.37,0-.75,0-1.12,0-11.57,3.24-20.74,7.42-24.05a3.89,3.89,0,0,1,2.48-.78h13a3.86,3.86,0,0,1,2.48.78c4.18,3.31,7.43,12.48,7.43,24.05C339.77,305,339.76,305.36,339.76,305.73Z"/><circle class="cls-4" cx="367.34" cy="271.64" r="6.58"/><path class="cls-4" d="M383.76,305.73c0,.07,0,.14,0,.21a2.38,2.38,0,0,1-4.76,0v0h0v-.21c0-8.15-1.5-15.1-3.6-17.74v41.95a3.68,3.68,0,0,1-7.36,0V304.15h-1.41v25.78a3.68,3.68,0,0,1-7.36,0V288c-2.1,2.64-3.61,9.59-3.61,17.74v.21h0v0a2.38,2.38,0,0,1-4.75,0,1.48,1.48,0,0,1,0-.21c0-.37,0-.75,0-1.12,0-11.57,3.24-20.74,7.42-24.05a3.89,3.89,0,0,1,2.48-.78h13a3.86,3.86,0,0,1,2.48.78c4.18,3.31,7.43,12.48,7.43,24.05C383.77,305,383.76,305.36,383.76,305.73Z"/><circle class="cls-4" cx="411.34" cy="271.64" r="6.58"/><path class="cls-4" d="M427.76,305.73c0,.07,0,.14,0,.21a2.38,2.38,0,0,1-4.76,0v0h0v-.21c0-8.15-1.5-15.1-3.6-17.74v41.95a3.68,3.68,0,0,1-7.36,0V304.15h-1.41v25.78a3.68,3.68,0,0,1-7.36,0V288c-2.1,2.64-3.61,9.59-3.61,17.74v.21h0v0a2.38,2.38,0,0,1-4.75,0,1.48,1.48,0,0,1,0-.21c0-.37,0-.75,0-1.12,0-11.57,3.24-20.74,7.42-24.05a3.89,3.89,0,0,1,2.48-.78h13a3.86,3.86,0,0,1,2.48.78c4.18,3.31,7.43,12.48,7.43,24.05C427.77,305,427.76,305.36,427.76,305.73Z"/><circle class="cls-4" cx="455.34" cy="271.64" r="6.58"/><path class="cls-4" d="M471.76,305.73c0,.07,0,.14,0,.21a2.38,2.38,0,0,1-4.76,0v0h0v-.21c0-8.15-1.5-15.1-3.6-17.74v41.95a3.68,3.68,0,0,1-7.36,0V304.15h-1.41v25.78a3.68,3.68,0,0,1-7.36,0V288c-2.1,2.64-3.61,9.59-3.61,17.74v.21h0v0a2.38,2.38,0,0,1-4.75,0,1.48,1.48,0,0,1,0-.21c0-.37,0-.75,0-1.12,0-11.57,3.24-20.74,7.42-24.05a3.89,3.89,0,0,1,2.48-.78h13a3.86,3.86,0,0,1,2.48.78c4.18,3.31,7.43,12.48,7.43,24.05C471.77,305,471.76,305.36,471.76,305.73Z"/><circle class="cls-4" cx="499.34" cy="271.64" r="6.58"/><path class="cls-4" d="M515.76,305.73c0,.07,0,.14,0,.21a2.38,2.38,0,0,1-4.76,0v0h0v-.21c0-8.15-1.5-15.1-3.6-17.74v41.95a3.68,3.68,0,0,1-7.36,0V304.15h-1.41v25.78a3.68,3.68,0,0,1-7.36,0V288c-2.1,2.64-3.61,9.59-3.61,17.74v.21h0v0a2.38,2.38,0,0,1-4.75,0,1.48,1.48,0,0,1,0-.21c0-.37,0-.75,0-1.12,0-11.57,3.24-20.74,7.42-24.05a3.89,3.89,0,0,1,2.48-.78h13a3.86,3.86,0,0,1,2.48.78c4.18,3.31,7.43,12.48,7.43,24.05C515.77,305,515.76,305.36,515.76,305.73Z"/><circle class="cls-4" cx="543.34" cy="271.64" r="6.58"/><path class="cls-4" d="M559.76,305.73c0,.07,0,.14,0,.21a2.38,2.38,0,0,1-4.76,0v0h0v-.21c0-8.15-1.5-15.1-3.6-17.74v41.95a3.68,3.68,0,1,1-7.36,0V304.15h-1.41v25.78a3.68,3.68,0,1,1-7.36,0V288c-2.1,2.64-3.61,9.59-3.61,17.74v.21h0v0a2.38,2.38,0,0,1-4.75,0,1.48,1.48,0,0,1,0-.21c0-.37,0-.75,0-1.12,0-11.57,3.24-20.74,7.42-24.05a3.89,3.89,0,0,1,2.48-.78h13a3.86,3.86,0,0,1,2.48.78c4.18,3.31,7.43,12.48,7.43,24.05C559.77,305,559.76,305.36,559.76,305.73Z"/><circle class="cls-4" cx="587.34" cy="271.64" r="6.58"/><path class="cls-4" d="M603.76,305.73c0,.07,0,.14,0,.21a2.38,2.38,0,0,1-4.76,0v0h0v-.21c0-8.15-1.5-15.1-3.6-17.74v41.95a3.68,3.68,0,1,1-7.36,0V304.15h-1.41v25.78a3.68,3.68,0,1,1-7.36,0V288c-2.1,2.64-3.61,9.59-3.61,17.74v.21h0v0a2.38,2.38,0,0,1-4.75,0,1.48,1.48,0,0,1,0-.21c0-.37,0-.75,0-1.12,0-11.57,3.24-20.74,7.42-24.05a3.89,3.89,0,0,1,2.48-.78h13a3.86,3.86,0,0,1,2.48.78c4.18,3.31,7.43,12.48,7.43,24.05C603.77,305,603.76,305.36,603.76,305.73Z"/><circle class="cls-5" cx="323.34" cy="353.02" r="6.58"/><path class="cls-5" d="M339.76,387.11c0,.07,0,.14,0,.21a2.38,2.38,0,0,1-4.76,0v0h0v-.21c0-8.15-1.5-15.1-3.6-17.74v41.95a3.68,3.68,0,0,1-7.36,0V385.54h-1.41v25.77a3.68,3.68,0,0,1-7.36,0V369.36c-2.1,2.64-3.61,9.59-3.61,17.74v.21h0v0a2.38,2.38,0,0,1-4.75,0,1.48,1.48,0,0,1,0-.21c0-.37,0-.74,0-1.12,0-11.57,3.24-20.73,7.42-24.05a4,4,0,0,1,2.48-.78h13a3.91,3.91,0,0,1,2.48.78c4.18,3.32,7.43,12.48,7.43,24.05C339.77,386.37,339.76,386.74,339.76,387.11Z"/><circle class="cls-5" cx="367.34" cy="353.02" r="6.58"/><path class="cls-5" d="M383.76,387.11c0,.07,0,.14,0,.21a2.38,2.38,0,0,1-4.76,0v0h0v-.21c0-8.15-1.5-15.1-3.6-17.74v41.95a3.68,3.68,0,0,1-7.36,0V385.54h-1.41v25.77a3.68,3.68,0,0,1-7.36,0V369.36c-2.1,2.64-3.61,9.59-3.61,17.74v.21h0v0a2.38,2.38,0,0,1-4.75,0,1.48,1.48,0,0,1,0-.21c0-.37,0-.74,0-1.12,0-11.57,3.24-20.73,7.42-24.05a4,4,0,0,1,2.48-.78h13a3.91,3.91,0,0,1,2.48.78c4.18,3.32,7.43,12.48,7.43,24.05C383.77,386.37,383.76,386.74,383.76,387.11Z"/><circle class="cls-5" cx="411.34" cy="353.02" r="6.58"/><path class="cls-5" d="M427.76,387.11c0,.07,0,.14,0,.21a2.38,2.38,0,0,1-4.76,0v0h0v-.21c0-8.15-1.5-15.1-3.6-17.74v41.95a3.68,3.68,0,0,1-7.36,0V385.54h-1.41v25.77a3.68,3.68,0,0,1-7.36,0V369.36c-2.1,2.64-3.61,9.59-3.61,17.74v.21h0v0a2.38,2.38,0,0,1-4.75,0,1.48,1.48,0,0,1,0-.21c0-.37,0-.74,0-1.12,0-11.57,3.24-20.73,7.42-24.05a4,4,0,0,1,2.48-.78h13a3.91,3.91,0,0,1,2.48.78c4.18,3.32,7.43,12.48,7.43,24.05C427.77,386.37,427.76,386.74,427.76,387.11Z"/><circle class="cls-5" cx="455.34" cy="353.02" r="6.58"/><path class="cls-5" d="M471.76,387.11c0,.07,0,.14,0,.21a2.38,2.38,0,0,1-4.76,0v0h0v-.21c0-8.15-1.5-15.1-3.6-17.74v41.95a3.68,3.68,0,0,1-7.36,0V385.54h-1.41v25.77a3.68,3.68,0,0,1-7.36,0V369.36c-2.1,2.64-3.61,9.59-3.61,17.74v.21h0v0a2.38,2.38,0,0,1-4.75,0,1.48,1.48,0,0,1,0-.21c0-.37,0-.74,0-1.12,0-11.57,3.24-20.73,7.42-24.05a4,4,0,0,1,2.48-.78h13a3.91,3.91,0,0,1,2.48.78c4.18,3.32,7.43,12.48,7.43,24.05C471.77,386.37,471.76,386.74,471.76,387.11Z"/><circle class="cls-5" cx="499.34" cy="353.02" r="6.58"/><path class="cls-5" d="M515.76,387.11c0,.07,0,.14,0,.21a2.38,2.38,0,0,1-4.76,0v0h0v-.21c0-8.15-1.5-15.1-3.6-17.74v41.95a3.68,3.68,0,0,1-7.36,0V385.54h-1.41v25.77a3.68,3.68,0,0,1-7.36,0V369.36c-2.1,2.64-3.61,9.59-3.61,17.74v.21h0v0a2.38,2.38,0,0,1-4.75,0,1.48,1.48,0,0,1,0-.21c0-.37,0-.74,0-1.12,0-11.57,3.24-20.73,7.42-24.05a4,4,0,0,1,2.48-.78h13a3.91,3.91,0,0,1,2.48.78c4.18,3.32,7.43,12.48,7.43,24.05C515.77,386.37,515.76,386.74,515.76,387.11Z"/><circle class="cls-5" cx="543.34" cy="353.02" r="6.58"/><path class="cls-5" d="M559.76,387.11c0,.07,0,.14,0,.21a2.38,2.38,0,0,1-4.76,0v0h0v-.21c0-8.15-1.5-15.1-3.6-17.74v41.95a3.68,3.68,0,1,1-7.36,0V385.54h-1.41v25.77a3.68,3.68,0,1,1-7.36,0V369.36c-2.1,2.64-3.61,9.59-3.61,17.74v.21h0v0a2.38,2.38,0,0,1-4.75,0,1.48,1.48,0,0,1,0-.21c0-.37,0-.74,0-1.12,0-11.57,3.24-20.73,7.42-24.05a4,4,0,0,1,2.48-.78h13a3.91,3.91,0,0,1,2.48.78c4.18,3.32,7.43,12.48,7.43,24.05C559.77,386.37,559.76,386.74,559.76,387.11Z"/><circle class="cls-5" cx="587.34" cy="353.02" r="6.58"/><path class="cls-5" d="M603.76,387.11c0,.07,0,.14,0,.21a2.38,2.38,0,0,1-4.76,0v0h0v-.21c0-8.15-1.5-15.1-3.6-17.74v41.95a3.68,3.68,0,1,1-7.36,0V385.54h-1.41v25.77a3.68,3.68,0,1,1-7.36,0V369.36c-2.1,2.64-3.61,9.59-3.61,17.74v.21h0v0a2.38,2.38,0,0,1-4.75,0,1.48,1.48,0,0,1,0-.21c0-.37,0-.74,0-1.12,0-11.57,3.24-20.73,7.42-24.05a4,4,0,0,1,2.48-.78h13a3.91,3.91,0,0,1,2.48.78c4.18,3.32,7.43,12.48,7.43,24.05C603.77,386.37,603.76,386.74,603.76,387.11Z"/><circle class="cls-6" cx="323.34" cy="434.41" r="6.58"/><path class="cls-6" d="M339.76,468.49c0,.08,0,.15,0,.22a2.38,2.38,0,0,1-4.76,0v0h0v-.21c0-8.16-1.5-15.1-3.6-17.74V492.7a3.68,3.68,0,0,1-7.36,0V466.92h-1.41V492.7a3.68,3.68,0,0,1-7.36,0V450.75c-2.1,2.64-3.61,9.58-3.61,17.74v.21h0v0a2.38,2.38,0,0,1-4.75,0,1.7,1.7,0,0,1,0-.22c0-.37,0-.74,0-1.11,0-11.57,3.24-20.74,7.42-24.05a3.9,3.9,0,0,1,2.48-.79h13a3.87,3.87,0,0,1,2.48.79c4.18,3.31,7.43,12.48,7.43,24.05C339.77,467.75,339.76,468.12,339.76,468.49Z"/><circle class="cls-6" cx="367.34" cy="434.41" r="6.58"/><path class="cls-6" d="M383.76,468.49c0,.08,0,.15,0,.22a2.38,2.38,0,0,1-4.76,0v0h0v-.21c0-8.16-1.5-15.1-3.6-17.74V492.7a3.68,3.68,0,0,1-7.36,0V466.92h-1.41V492.7a3.68,3.68,0,0,1-7.36,0V450.75c-2.1,2.64-3.61,9.58-3.61,17.74v.21h0v0a2.38,2.38,0,0,1-4.75,0,1.7,1.7,0,0,1,0-.22c0-.37,0-.74,0-1.11,0-11.57,3.24-20.74,7.42-24.05a3.9,3.9,0,0,1,2.48-.79h13a3.87,3.87,0,0,1,2.48.79c4.18,3.31,7.43,12.48,7.43,24.05C383.77,467.75,383.76,468.12,383.76,468.49Z"/><circle class="cls-6" cx="411.34" cy="434.41" r="6.58"/><path class="cls-6" d="M427.76,468.49c0,.08,0,.15,0,.22a2.38,2.38,0,0,1-4.76,0v0h0v-.21c0-8.16-1.5-15.1-3.6-17.74V492.7a3.68,3.68,0,0,1-7.36,0V466.92h-1.41V492.7a3.68,3.68,0,0,1-7.36,0V450.75c-2.1,2.64-3.61,9.58-3.61,17.74v.21h0v0a2.38,2.38,0,0,1-4.75,0,1.7,1.7,0,0,1,0-.22c0-.37,0-.74,0-1.11,0-11.57,3.24-20.74,7.42-24.05a3.9,3.9,0,0,1,2.48-.79h13a3.87,3.87,0,0,1,2.48.79c4.18,3.31,7.43,12.48,7.43,24.05C427.77,467.75,427.76,468.12,427.76,468.49Z"/><circle class="cls-6" cx="455.34" cy="434.41" r="6.58"/><path class="cls-6" d="M471.76,468.49c0,.08,0,.15,0,.22a2.38,2.38,0,0,1-4.76,0v0h0v-.21c0-8.16-1.5-15.1-3.6-17.74V492.7a3.68,3.68,0,0,1-7.36,0V466.92h-1.41V492.7a3.68,3.68,0,0,1-7.36,0V450.75c-2.1,2.64-3.61,9.58-3.61,17.74v.21h0v0a2.38,2.38,0,0,1-4.75,0,1.7,1.7,0,0,1,0-.22c0-.37,0-.74,0-1.11,0-11.57,3.24-20.74,7.42-24.05a3.9,3.9,0,0,1,2.48-.79h13a3.87,3.87,0,0,1,2.48.79c4.18,3.31,7.43,12.48,7.43,24.05C471.77,467.75,471.76,468.12,471.76,468.49Z"/><circle class="cls-6" cx="499.34" cy="434.41" r="6.58"/><path class="cls-6" d="M515.76,468.49c0,.08,0,.15,0,.22a2.38,2.38,0,0,1-4.76,0v0h0v-.21c0-8.16-1.5-15.1-3.6-17.74V492.7a3.68,3.68,0,0,1-7.36,0V466.92h-1.41V492.7a3.68,3.68,0,0,1-7.36,0V450.75c-2.1,2.64-3.61,9.58-3.61,17.74v.21h0v0a2.38,2.38,0,0,1-4.75,0,1.7,1.7,0,0,1,0-.22c0-.37,0-.74,0-1.11,0-11.57,3.24-20.74,7.42-24.05a3.9,3.9,0,0,1,2.48-.79h13a3.87,3.87,0,0,1,2.48.79c4.18,3.31,7.43,12.48,7.43,24.05C515.77,467.75,515.76,468.12,515.76,468.49Z"/><circle class="cls-6" cx="543.34" cy="434.41" r="6.58"/><path class="cls-6" d="M559.76,468.49c0,.08,0,.15,0,.22a2.38,2.38,0,0,1-4.76,0v0h0v-.21c0-8.16-1.5-15.1-3.6-17.74V492.7a3.68,3.68,0,1,1-7.36,0V466.92h-1.41V492.7a3.68,3.68,0,1,1-7.36,0V450.75c-2.1,2.64-3.61,9.58-3.61,17.74v.21h0v0a2.38,2.38,0,0,1-4.75,0,1.7,1.7,0,0,1,0-.22c0-.37,0-.74,0-1.11,0-11.57,3.24-20.74,7.42-24.05a3.9,3.9,0,0,1,2.48-.79h13a3.87,3.87,0,0,1,2.48.79c4.18,3.31,7.43,12.48,7.43,24.05C559.77,467.75,559.76,468.12,559.76,468.49Z"/><circle class="cls-6" cx="587.34" cy="434.41" r="6.58"/><path class="cls-6" d="M603.76,468.49c0,.08,0,.15,0,.22a2.38,2.38,0,0,1-4.76,0v0h0v-.21c0-8.16-1.5-15.1-3.6-17.74V492.7a3.68,3.68,0,1,1-7.36,0V466.92h-1.41V492.7a3.68,3.68,0,1,1-7.36,0V450.75c-2.1,2.64-3.61,9.58-3.61,17.74v.21h0v0a2.38,2.38,0,0,1-4.75,0,1.7,1.7,0,0,1,0-.22c0-.37,0-.74,0-1.11,0-11.57,3.24-20.74,7.42-24.05a3.9,3.9,0,0,1,2.48-.79h13a3.87,3.87,0,0,1,2.48.79c4.18,3.31,7.43,12.48,7.43,24.05C603.77,467.75,603.76,468.12,603.76,468.49Z"/><circle class="cls-5" cx="631.34" cy="353.02" r="6.58"/><path class="cls-5" d="M647.76,387.11c0,.07,0,.14,0,.21a2.38,2.38,0,0,1-4.76,0v0h0v-.21c0-8.15-1.5-15.1-3.6-17.74v41.95a3.68,3.68,0,1,1-7.36,0V385.54h-1.41v25.77a3.68,3.68,0,1,1-7.36,0V369.36c-2.1,2.64-3.61,9.59-3.61,17.74v.21h0v0a2.38,2.38,0,0,1-4.75,0,1.48,1.48,0,0,1,0-.21c0-.37,0-.74,0-1.12,0-11.57,3.24-20.73,7.42-24.05a4,4,0,0,1,2.48-.78h13a3.91,3.91,0,0,1,2.48.78c4.18,3.32,7.43,12.48,7.43,24.05C647.77,386.37,647.76,386.74,647.76,387.11Z"/><circle class="cls-5" cx="675.34" cy="353.02" r="6.58"/><path class="cls-5" d="M691.76,387.11c0,.07,0,.14,0,.21a2.38,2.38,0,0,1-4.76,0v0h0v-.21c0-8.15-1.5-15.1-3.6-17.74v41.95a3.68,3.68,0,1,1-7.36,0V385.54h-1.41v25.77a3.68,3.68,0,1,1-7.36,0V369.36c-2.1,2.64-3.61,9.59-3.61,17.74v.21h0v0a2.38,2.38,0,0,1-4.75,0,1.48,1.48,0,0,1,0-.21c0-.37,0-.74,0-1.12,0-11.57,3.24-20.73,7.42-24.05a4,4,0,0,1,2.48-.78h13a3.91,3.91,0,0,1,2.48.78c4.18,3.32,7.43,12.48,7.43,24.05C691.77,386.37,691.76,386.74,691.76,387.11Z"/><circle class="cls-6" cx="631.34" cy="434.41" r="6.58"/><path class="cls-6" d="M647.76,468.49c0,.08,0,.15,0,.22a2.38,2.38,0,0,1-4.76,0v0h0v-.21c0-8.16-1.5-15.1-3.6-17.74V492.7a3.68,3.68,0,1,1-7.36,0V466.92h-1.41V492.7a3.68,3.68,0,1,1-7.36,0V450.75c-2.1,2.64-3.61,9.58-3.61,17.74v.21h0v0a2.38,2.38,0,0,1-4.75,0,1.7,1.7,0,0,1,0-.22c0-.37,0-.74,0-1.11,0-11.57,3.24-20.74,7.42-24.05a3.9,3.9,0,0,1,2.48-.79h13a3.87,3.87,0,0,1,2.48.79c4.18,3.31,7.43,12.48,7.43,24.05C647.77,467.75,647.76,468.12,647.76,468.49Z"/><circle class="cls-6" cx="675.34" cy="434.41" r="6.58"/><path class="cls-6" d="M691.76,468.49c0,.08,0,.15,0,.22a2.38,2.38,0,0,1-4.76,0v0h0v-.21c0-8.16-1.5-15.1-3.6-17.74V492.7a3.68,3.68,0,1,1-7.36,0V466.92h-1.41V492.7a3.68,3.68,0,1,1-7.36,0V450.75c-2.1,2.64-3.61,9.58-3.61,17.74v.21h0v0a2.38,2.38,0,0,1-4.75,0,1.7,1.7,0,0,1,0-.22c0-.37,0-.74,0-1.11,0-11.57,3.24-20.74,7.42-24.05a3.9,3.9,0,0,1,2.48-.79h13a3.87,3.87,0,0,1,2.48.79c4.18,3.31,7.43,12.48,7.43,24.05C691.77,467.75,691.76,468.12,691.76,468.49Z"/><circle class="cls-6" cx="719.34" cy="434.41" r="6.58"/><path class="cls-6" d="M735.76,468.49c0,.08,0,.15,0,.22a2.38,2.38,0,0,1-4.76,0v0h0v-.21c0-8.16-1.5-15.1-3.6-17.74V492.7a3.68,3.68,0,1,1-7.36,0V466.92h-1.41V492.7a3.68,3.68,0,1,1-7.36,0V450.75c-2.1,2.64-3.61,9.58-3.61,17.74v.21h0v0a2.38,2.38,0,0,1-4.75,0,1.7,1.7,0,0,1,0-.22c0-.37,0-.74,0-1.11,0-11.57,3.24-20.74,7.42-24.05a3.9,3.9,0,0,1,2.48-.79h13a3.87,3.87,0,0,1,2.48.79c4.18,3.31,7.43,12.48,7.43,24.05C735.77,467.75,735.76,468.12,735.76,468.49Z"/><circle class="cls-6" cx="763.34" cy="434.41" r="6.58"/><path class="cls-6" d="M779.76,468.49c0,.08,0,.15,0,.22a2.38,2.38,0,0,1-4.76,0v0h0v-.21c0-8.16-1.5-15.1-3.6-17.74V492.7a3.68,3.68,0,1,1-7.36,0V466.92h-1.41V492.7a3.68,3.68,0,1,1-7.36,0V450.75c-2.1,2.64-3.61,9.58-3.61,17.74v.21h0v0a2.38,2.38,0,0,1-4.75,0,1.7,1.7,0,0,1,0-.22c0-.37,0-.74,0-1.11,0-11.57,3.24-20.74,7.42-24.05a3.9,3.9,0,0,1,2.48-.79h13a3.87,3.87,0,0,1,2.48.79c4.18,3.31,7.43,12.48,7.43,24.05C779.77,467.75,779.76,468.12,779.76,468.49Z"/><g id="текст"><rect class="cls-7" x="360.76" y="2.43" width="1242.08" height="87.03" rx="43.52"/><g id="оффициальный_партнер_МЫВМЕСТЕ_" data-name="оффициальный партнер &quot;МЫВМЕСТЕ&quot;"><text class="cls-8" transform="translate(1003.85 52.56) scale(0.89 1)">оффициальный партнер «МЫВМЕСТЕ»</text></g><rect class="cls-9" x="438.92" y="102.29" width="1163.93" height="68.55" rx="34.28"/><g id="оффициальный_партнер_МЫВМЕСТЕ_2" data-name="оффициальный партнер &quot;МЫВМЕСТЕ&quot;"><text class="cls-8" transform="translate(976.06 141.23) scale(0.89 1)">1 линия - 30% от каждого вознаграждения</text></g><rect class="cls-10" x="526.92" y="183.68" width="1075.93" height="68.55" rx="34.28"/><rect class="cls-11" x="614.92" y="265.06" width="987.93" height="68.55" rx="34.28"/><rect class="cls-12" x="702.92" y="346.44" width="899.93" height="68.55" rx="34.28"/><rect class="cls-13" x="784.93" y="427.83" width="817.91" height="68.55" rx="34.28"/><g id="оффициальный_партнер_МЫВМЕСТЕ_3" data-name="оффициальный партнер &quot;МЫВМЕСТЕ&quot;"><text class="cls-8" transform="translate(976.06 222.62) scale(0.89 1)">2 линия - 20% от каждого вознаграждения</text></g><g id="оффициальный_партнер_МЫВМЕСТЕ_4" data-name="оффициальный партнер &quot;МЫВМЕСТЕ&quot;"><text class="cls-8" transform="translate(976.06 304) scale(0.89 1)">3 линия - 15% от каждого вознаграждения</text></g><g id="оффициальный_партнер_МЫВМЕСТЕ_5" data-name="оффициальный партнер &quot;МЫВМЕСТЕ&quot;"><text class="cls-8" transform="translate(976.06 385.38) scale(0.89 1)">4 линия - 15% от каждого вознаграждения</text></g><g id="оффициальный_партнер_МЫВМЕСТЕ_6" data-name="оффициальный партнер &quot;МЫВМЕСТЕ&quot;"><text class="cls-8" transform="translate(976.06 466.77) scale(0.89 1)">5 линия - 20% от каждого вознаграждения</text></g><rect class="cls-14" x="976.06" y="23.94" width="471.79" height="44" rx="9.75"/></g></svg>