<svg xmlns="http://www.w3.org/2000/svg" viewBox="0 0 56.88 56.63"><defs><style>.cls-1{fill:#45a4ba;}.cls-2{fill:#a08365;}.cls-10,.cls-11,.cls-12,.cls-13,.cls-2,.cls-5,.cls-6,.cls-7,.cls-9{stroke:#000;}.cls-10,.cls-11,.cls-12,.cls-13,.cls-14,.cls-15,.cls-2,.cls-5,.cls-6,.cls-7,.cls-8,.cls-9{stroke-miterlimit:10;}.cls-12,.cls-2,.cls-6,.cls-9{stroke-width:0.75px;}.cls-3,.cls-7{fill:#fff;}.cls-4{fill:#b7b797;}.cls-5{fill:#ccc;}.cls-6{fill:#9b6d65;}.cls-7,.cls-8{stroke-width:0.25px;}.cls-14,.cls-8{stroke:#fff;}.cls-10,.cls-11,.cls-13,.cls-14,.cls-15,.cls-9{fill:none;}.cls-11,.cls-15{stroke-width:2px;}.cls-12{fill:#666;}.cls-13,.cls-14{stroke-width:0.1px;}.cls-15{stroke:#999;}</style></defs><title>gorod</title><g id="город"><path class="cls-1" d="M48.38,10.24,37.51,17.1V28.85H33.09V13.52H9.59V24.43H2.21A27,27,0,0,1,48.38,10.24Z"/><path class="cls-2" d="M33.09,13.52v42H33l-.42.06a.76.76,0,0,1-.21,0l-.32,0-.33,0h0l-.15,0-.21,0h-.07l-.6,0-.49,0-.33,0-1.06,0c-.4,0-.79,0-1.18,0h-.21c-.41,0-.83-.05-1.23-.09s-1.09-.12-1.62-.2-.81-.14-1.2-.22-.83-.18-1.24-.28L22,55c-.29-.07-.57-.15-.85-.24l-.52-.15c-.71-.23-1.4-.48-2.08-.77L18,53.56a2.32,2.32,0,0,1-.39-.18L16.82,53A26.35,26.35,0,0,1,14,51.43l-.7-.48V24.43H9.59V13.52Z"/><rect class="cls-3" x="18.49" y="24.52" width="1.17" height="3.16"/><rect class="cls-3" x="15.97" y="24.52" width="1.17" height="3.16"/><rect class="cls-3" x="13.45" y="24.52" width="1.17" height="3.16"/><rect class="cls-3" x="10.93" y="24.52" width="1.17" height="3.16"/><rect class="cls-3" x="21.01" y="24.52" width="1.17" height="3.16" transform="translate(43.2 52.2) rotate(-180)"/><rect class="cls-3" x="23.54" y="24.52" width="1.17" height="3.16" transform="translate(48.24 52.2) rotate(-180)"/><rect class="cls-3" x="26.06" y="24.52" width="1.17" height="3.16" transform="translate(53.28 52.2) rotate(-180)"/><rect class="cls-4" x="28.58" y="24.52" width="1.17" height="3.16" transform="translate(58.32 52.2) rotate(-180)"/><rect class="cls-3" x="30.94" y="24.52" width="1.17" height="3.16" transform="translate(63.04 52.2) rotate(-180)"/><rect class="cls-4" x="18.49" y="28.85" width="1.17" height="3.16"/><rect class="cls-3" x="15.97" y="28.85" width="1.17" height="3.16"/><rect class="cls-3" x="13.45" y="28.85" width="1.17" height="3.16"/><rect class="cls-3" x="10.93" y="28.85" width="1.17" height="3.16"/><rect class="cls-3" x="21.01" y="28.85" width="1.17" height="3.16" transform="translate(43.2 60.85) rotate(-180)"/><rect class="cls-3" x="23.54" y="28.85" width="1.17" height="3.16" transform="translate(48.24 60.85) rotate(-180)"/><rect class="cls-3" x="26.06" y="28.85" width="1.17" height="3.16" transform="translate(53.28 60.85) rotate(-180)"/><rect class="cls-3" x="28.58" y="28.85" width="1.17" height="3.16" transform="translate(58.32 60.85) rotate(-180)"/><rect class="cls-3" x="30.94" y="28.85" width="1.17" height="3.16" transform="translate(63.04 60.85) rotate(-180)"/><rect class="cls-3" x="18.49" y="33.18" width="1.17" height="3.16"/><rect class="cls-3" x="15.97" y="33.18" width="1.17" height="3.16"/><rect class="cls-4" x="13.45" y="33.18" width="1.17" height="3.16"/><rect class="cls-3" x="10.93" y="33.18" width="1.17" height="3.16"/><rect class="cls-3" x="21.01" y="33.18" width="1.17" height="3.16" transform="translate(43.2 69.51) rotate(-180)"/><rect class="cls-4" x="23.54" y="33.18" width="1.17" height="3.16" transform="translate(48.24 69.51) rotate(-180)"/><rect class="cls-3" x="26.06" y="33.18" width="1.17" height="3.16" transform="translate(53.28 69.51) rotate(-180)"/><rect class="cls-3" x="28.58" y="33.18" width="1.17" height="3.16" transform="translate(58.32 69.51) rotate(-180)"/><rect class="cls-3" x="30.94" y="33.18" width="1.17" height="3.16" transform="translate(63.04 69.51) rotate(-180)"/><rect class="cls-3" x="18.49" y="37.51" width="1.17" height="3.16"/><rect class="cls-3" x="15.97" y="37.51" width="1.17" height="3.16"/><rect class="cls-3" x="13.45" y="37.51" width="1.17" height="3.16"/><rect class="cls-3" x="10.93" y="37.51" width="1.17" height="3.16"/><rect class="cls-3" x="21.01" y="37.51" width="1.17" height="3.16" transform="translate(43.2 78.17) rotate(-180)"/><rect class="cls-3" x="23.54" y="37.51" width="1.17" height="3.16" transform="translate(48.24 78.17) rotate(-180)"/><rect class="cls-3" x="26.06" y="37.51" width="1.17" height="3.16" transform="translate(53.28 78.17) rotate(-180)"/><rect class="cls-3" x="28.58" y="37.51" width="1.17" height="3.16" transform="translate(58.32 78.17) rotate(-180)"/><rect class="cls-3" x="30.94" y="37.51" width="1.17" height="3.16" transform="translate(63.04 78.17) rotate(-180)"/><rect class="cls-3" x="18.49" y="41.84" width="1.17" height="3.16"/><rect class="cls-3" x="15.97" y="41.84" width="1.17" height="3.16"/><rect class="cls-4" x="13.45" y="41.84" width="1.17" height="3.16"/><rect class="cls-3" x="10.93" y="41.84" width="1.17" height="3.16"/><rect class="cls-3" x="21.01" y="41.84" width="1.17" height="3.16" transform="translate(43.2 86.83) rotate(-180)"/><rect class="cls-3" x="23.54" y="41.84" width="1.17" height="3.16" transform="translate(48.24 86.83) rotate(-180)"/><rect class="cls-3" x="26.06" y="41.84" width="1.17" height="3.16" transform="translate(53.28 86.83) rotate(-180)"/><rect class="cls-3" x="28.58" y="41.84" width="1.17" height="3.16" transform="translate(58.32 86.83) rotate(-180)"/><rect class="cls-3" x="30.94" y="41.84" width="1.17" height="3.16" transform="translate(63.04 86.83) rotate(-180)"/><rect class="cls-3" x="18.49" y="46.16" width="1.17" height="3.16"/><rect class="cls-3" x="15.97" y="46.16" width="1.17" height="3.16"/><rect class="cls-3" x="13.45" y="46.16" width="1.17" height="3.16"/><rect class="cls-3" x="10.93" y="46.16" width="1.17" height="3.16"/><rect class="cls-4" x="21.01" y="46.16" width="1.17" height="3.16" transform="translate(43.2 95.49) rotate(-180)"/><rect class="cls-4" x="23.54" y="46.16" width="1.17" height="3.16" transform="translate(48.24 95.49) rotate(-180)"/><rect class="cls-3" x="26.06" y="46.16" width="1.17" height="3.16" transform="translate(53.28 95.49) rotate(-180)"/><rect class="cls-3" x="28.58" y="46.16" width="1.17" height="3.16" transform="translate(58.32 95.49) rotate(-180)"/><rect class="cls-3" x="30.94" y="46.16" width="1.17" height="3.16" transform="translate(63.04 95.49) rotate(-180)"/><rect class="cls-4" x="18.49" y="50.49" width="1.17" height="3.16"/><rect class="cls-3" x="15.97" y="50.49" width="1.17" height="3.16"/><rect class="cls-3" x="13.45" y="50.49" width="1.17" height="3.16"/><rect class="cls-3" x="10.93" y="50.49" width="1.17" height="3.16"/><rect class="cls-3" x="21.01" y="50.49" width="1.17" height="3.16" transform="translate(43.2 104.14) rotate(-180)"/><rect class="cls-3" x="23.54" y="50.49" width="1.17" height="3.16" transform="translate(48.24 104.14) rotate(-180)"/><rect class="cls-3" x="26.06" y="50.49" width="1.17" height="3.16" transform="translate(53.28 104.14) rotate(-180)"/><rect class="cls-3" x="28.58" y="50.49" width="1.17" height="3.16" transform="translate(58.32 104.14) rotate(-180)"/><rect class="cls-3" x="30.94" y="50.49" width="1.17" height="3.16" transform="translate(63.04 104.14) rotate(-180)"/><path class="cls-5" d="M13.34,24.43V51c-.37-.26-.74-.53-1.1-.81-.57-.44-1.11-.9-1.63-1.38l-.67-.64a5.81,5.81,0,0,1-.43-.43c-.22-.22-.42-.43-.62-.66a22.31,22.31,0,0,1-1.47-1.75l-.31-.41c-.18-.23-.35-.47-.51-.71s-.24-.35-.36-.54c-.46-.69-.87-1.39-1.26-2.12l-.45-.88c-.21-.43-.4-.86-.59-1.3s-.32-.79-.46-1.19S3.22,37.41,3.1,37s-.31-1-.44-1.57-.19-.78-.27-1.17v0q-.14-.66-.24-1.32c-.06-.37-.11-.75-.14-1.13,0-.14,0-.29,0-.44,0-.38-.07-.77-.08-1.15s0-.92,0-1.39,0-.93,0-1.39,0-.78.09-1.17c0-.22,0-.44.07-.66a1.23,1.23,0,0,1,0-.2c0-.34.09-.67.15-1Z"/><path class="cls-6" d="M55.84,28.85c0,.47,0,.93,0,1.39s0,.78-.08,1.16c0,.15,0,.31,0,.46s-.06.5-.1.75,0,.4-.08.6c-.06.36-.13.72-.2,1.08q-.16.83-.39,1.62-.07.33-.18.66c-.07.24-.15.48-.23.72-.22.69-.48,1.37-.76,2-.13.32-.27.64-.42,1s-.23.49-.35.72a27.19,27.19,0,0,1-1.41,2.47c-.24.37-.48.72-.73,1.07s-.31.43-.48.64-.43.57-.67.85-.55.66-.85,1-.55.6-.83.88a26.83,26.83,0,0,1-2.53,2.24c-.19.16-.39.31-.59.45s-.56.41-.84.6l-.68.44a1.67,1.67,0,0,1-.28.18c-.23.15-.46.29-.7.42l-.18.11c-.23.13-.46.26-.69.37h0l-.14.07-.87.44c-.34.17-.68.32-1,.46s-.44.19-.66.27l-.31.12a.62.62,0,0,1-.19.07l-.79.29h0V17.1l10.87-6.86c.27.29.54.58.8.88a.3.3,0,0,1,.11.12c.23.27.46.54.68.82a.63.63,0,0,1,.11.13c.24.31.48.63.71,1s.48.68.71,1,.45.71.66,1.07.39.68.57,1c.05.08.09.16.13.24.16.3.31.61.45.92a2.4,2.4,0,0,1,.11.23c.13.29.26.58.38.88q.31.75.57,1.53.18.5.33,1t.33,1.2c.1.38.18.76.26,1.14s.14.74.2,1.11c.09.55.16,1.1.22,1.66A26.23,26.23,0,0,1,55.84,28.85Z"/><path class="cls-5" d="M41.5,28.85V52.31l-.14.07c-.21.12-.43.22-.65.33l-.22.1q-.51.25-1,.45-.33.15-.66.27a1.66,1.66,0,0,1-.31.12.62.62,0,0,1-.19.07l-.79.28h0l-.47.16-.46.14c-.29.09-.58.16-.87.24l-.24.06c-.37.09-.73.18-1.1.25s-.85.17-1.28.22H33c-.14,0-.28.05-.42.06l-.21,0-.32,0-.33,0h0l-.15,0-.21,0h-.07l-.6.05-.49,0-.33,0-1.06,0c-.4,0-.79,0-1.18,0h-.21c-.32,0-.64,0-.95-.07V28.85Z"/><rect class="cls-7" x="28.83" y="31.41" width="1.33" height="5.5"/><rect class="cls-8" x="33.33" y="31.41" width="1.33" height="5.5"/><rect class="cls-8" x="37.83" y="31.41" width="1.33" height="5.5"/><rect class="cls-8" x="28.83" y="40.66" width="1.33" height="5.5"/><rect class="cls-7" x="33.33" y="40.66" width="1.33" height="5.5"/><rect class="cls-8" x="37.83" y="40.66" width="1.33" height="5.5"/><rect class="cls-8" x="28.83" y="49.91" width="1.33" height="5.5"/><rect class="cls-8" x="33.33" y="49.91" width="1.33" height="5.5"/><rect class="cls-7" x="37.83" y="49.91" width="1.33" height="4.15"/><rect x="8.87" y="25.66" width="2.08" height="3.46"/><rect x="5.08" y="25.66" width="2.08" height="3.46"/><rect class="cls-3" x="1.29" y="25.66" width="2.08" height="3.46"/><rect class="cls-3" x="8.87" y="30.6" width="2.08" height="3.46"/><rect x="5.08" y="30.6" width="2.08" height="3.46"/><rect x="1.46" y="30.6" width="1.92" height="3.46"/><rect x="8.87" y="35.54" width="2.08" height="3.46"/><rect x="5.08" y="35.54" width="2.08" height="3.46"/><rect x="8.87" y="40.48" width="2.08" height="3.46"/><rect class="cls-3" x="5.32" y="40.48" width="1.84" height="3.15"/><rect class="cls-3" x="8.87" y="45.42" width="2.08" height="2.99"/><rect class="cls-7" x="10.96" y="16.91" width="21.15" height="1.75"/><rect class="cls-3" x="21.01" y="20.19" width="1.17" height="3.16"/><rect class="cls-4" x="18.49" y="20.19" width="1.17" height="3.16"/><rect class="cls-3" x="15.97" y="20.19" width="1.17" height="3.16"/><rect class="cls-3" x="13.45" y="20.19" width="1.17" height="3.16"/><rect class="cls-3" x="10.93" y="20.19" width="1.17" height="3.16"/><rect class="cls-3" x="21.01" y="20.19" width="1.17" height="3.16" transform="translate(43.2 43.54) rotate(-180)"/><rect class="cls-3" x="23.54" y="20.19" width="1.17" height="3.16" transform="translate(48.24 43.54) rotate(-180)"/><rect class="cls-3" x="26.06" y="20.19" width="1.17" height="3.16" transform="translate(53.28 43.54) rotate(-180)"/><rect class="cls-3" x="28.58" y="20.19" width="1.17" height="3.16" transform="translate(58.32 43.54) rotate(-180)"/><rect class="cls-4" x="30.94" y="20.19" width="1.17" height="3.16" transform="translate(63.04 43.54) rotate(-180)"/><line class="cls-9" x1="37.51" y1="21.77" x2="54.7" y2="21.77"/><rect class="cls-3" x="38.49" y="23.83" width="2.52" height="2.52"/><rect class="cls-3" x="43.48" y="23.83" width="2.52" height="2.52"/><rect class="cls-3" x="48.47" y="23.83" width="2.52" height="2.52"/><rect class="cls-4" x="53.46" y="23.83" width="2.52" height="2.52"/><rect class="cls-3" x="38.49" y="27.9" width="2.52" height="0.51"/><rect class="cls-4" x="43.48" y="27.9" width="2.52" height="2.52"/><rect class="cls-3" x="48.47" y="27.9" width="2.52" height="2.52"/><rect class="cls-3" x="53.46" y="27.9" width="2.52" height="2.52"/><rect class="cls-3" x="43.48" y="31.98" width="2.52" height="2.52"/><rect class="cls-4" x="48.47" y="31.98" width="2.52" height="2.52"/><rect class="cls-3" x="53.46" y="31.98" width="1.71" height="2.52"/><rect class="cls-3" x="43.48" y="36.06" width="2.52" height="2.52"/><rect class="cls-3" x="48.47" y="36.06" width="2.52" height="2.52"/><rect class="cls-3" x="43.48" y="40.13" width="2.52" height="2.52"/><rect class="cls-4" x="48.47" y="40.13" width="2.52" height="2.52"/><rect class="cls-3" x="43.48" y="44.21" width="2.52" height="2.52"/><rect class="cls-3" x="48.47" y="44.21" width="2.52" height="0.78"/><rect class="cls-3" x="53.46" y="44.21" width="2.52" height="2.52"/><rect class="cls-4" x="43.48" y="48.29" width="2.52" height="1.45"/><rect class="cls-3" x="48.47" y="48.29" width="2.52" height="2.52"/><rect class="cls-3" x="53.46" y="48.29" width="2.52" height="2.52"/><line class="cls-10" x1="41.5" y1="14.58" x2="41.5" y2="7.78"/><line class="cls-11" x1="30.17" y1="13.83" x2="30.17" y2="11.6"/><path class="cls-12" d="M47.53,10.77l-10,6.33"/><line class="cls-13" x1="29.5" y1="31.41" x2="29.5" y2="36.91"/><line class="cls-13" x1="28.83" y1="34.16" x2="30.17" y2="34.16"/><line class="cls-14" x1="34" y1="31.41" x2="34" y2="36.91"/><line class="cls-14" x1="33.33" y1="34.16" x2="34.66" y2="34.16"/><line class="cls-14" x1="38.49" y1="31.41" x2="38.49" y2="36.91"/><line class="cls-14" x1="37.83" y1="34.16" x2="39.16" y2="34.16"/><line class="cls-14" x1="38.49" y1="40.66" x2="38.49" y2="46.16"/><line class="cls-14" x1="37.83" y1="43.41" x2="39.16" y2="43.41"/><line class="cls-14" x1="29.5" y1="40.66" x2="29.5" y2="46.16"/><line class="cls-14" x1="28.83" y1="43.41" x2="30.17" y2="43.41"/><line class="cls-14" x1="29.5" y1="49.91" x2="29.5" y2="55.41"/><line class="cls-14" x1="28.83" y1="52.66" x2="30.17" y2="52.66"/><line class="cls-14" x1="34" y1="49.91" x2="34" y2="55.41"/><line class="cls-14" x1="33.33" y1="52.66" x2="34.66" y2="52.66"/><line class="cls-13" x1="34" y1="40.66" x2="34" y2="46.16"/><line class="cls-13" x1="33.33" y1="43.41" x2="34.66" y2="43.41"/><line class="cls-13" x1="38.49" y1="49.91" x2="38.49" y2="53.65"/><circle class="cls-15" cx="28.46" cy="28.41" r="27"/></g></svg>