<svg xmlns="http://www.w3.org/2000/svg" xmlns:xlink="http://www.w3.org/1999/xlink" viewBox="0 0 1073.39 366"><defs><style>.cls-1,.cls-13,.cls-17,.cls-18,.cls-19,.cls-20,.cls-25,.cls-3,.cls-5,.cls-8,.cls-9{fill:none;}.cls-1{stroke:gray;}.cls-1,.cls-13,.cls-24,.cls-4,.cls-7,.cls-9{stroke-miterlimit:10;}.cls-1,.cls-7,.cls-8{stroke-width:2px;}.cls-2,.cls-6,.cls-7{fill:#0fb99b;}.cls-24,.cls-4{fill:#c62737;}.cls-10,.cls-4,.cls-9{stroke:red;}.cls-10,.cls-14,.cls-15,.cls-16,.cls-17,.cls-18,.cls-19,.cls-20,.cls-24,.cls-25,.cls-4,.cls-5,.cls-7,.cls-8,.cls-9{stroke-linecap:round;}.cls-10,.cls-24,.cls-4,.cls-9{stroke-width:4px;}.cls-20,.cls-5,.cls-8{stroke:#0fb99b;}.cls-10,.cls-14,.cls-15,.cls-16,.cls-17,.cls-18,.cls-19,.cls-20,.cls-25,.cls-5,.cls-8{stroke-linejoin:round;}.cls-14,.cls-15,.cls-16,.cls-5{stroke-width:3px;}.cls-6{font-size:37.17px;font-family:FuturaBT-Bold, Futura Md BT;font-weight:700;}.cls-6,.cls-7{stroke:#000;}.cls-10{fill:red;}.cls-11{font-size:18px;}.cls-11,.cls-12{fill:#333;font-family:OpenSans-Regular, Open Sans;}.cls-12{font-size:14px;}.cls-13{stroke:#4d4d4d;}.cls-14,.cls-15,.cls-16,.cls-22{fill:#fff;}.cls-14{stroke:url(#Безымянный_градиент_28);}.cls-15{stroke:url(#Безымянный_градиент_28-2);}.cls-16{stroke:url(#Безымянный_градиент_28-3);}.cls-17,.cls-18,.cls-19{stroke-width:0.25px;}.cls-17{stroke:url(#Безымянный_градиент_32);}.cls-18{stroke:url(#Безымянный_градиент_32-2);}.cls-19{stroke:url(#Безымянный_градиент_32-3);}.cls-20{stroke-width:5px;}.cls-21{fill:#fcee21;}.cls-23{fill:#e4ea6c;}.cls-24{stroke:#ff1d25;}.cls-25{stroke:#fff;}</style><linearGradient id="Безымянный_градиент_28" x1="112.23" y1="254.09" x2="144.36" y2="254.09" gradientUnits="userSpaceOnUse"><stop offset="0" stop-color="#0fb99b"/><stop offset="0.3" stop-color="#11ba9c"/><stop offset="0.44" stop-color="#19bc9f"/><stop offset="0.55" stop-color="#25c0a4"/><stop offset="0.64" stop-color="#38c5ac"/><stop offset="0.72" stop-color="#4fccb6"/><stop offset="0.79" stop-color="#6dd4c2"/><stop offset="0.85" stop-color="#90ded1"/><stop offset="0.91" stop-color="#b8eae1"/><stop offset="0.97" stop-color="#e4f7f4"/><stop offset="1" stop-color="#fff"/></linearGradient><linearGradient id="Безымянный_градиент_28-2" x1="112.23" y1="276.98" x2="144.36" y2="276.98" xlink:href="#Безымянный_градиент_28"/><linearGradient id="Безымянный_градиент_28-3" x1="112.23" y1="300.21" x2="144.36" y2="300.21" xlink:href="#Безымянный_градиент_28"/><linearGradient id="Безымянный_градиент_32" x1="108.73" y1="264.15" x2="146.48" y2="264.15" gradientUnits="userSpaceOnUse"><stop offset="0" stop-color="red"/><stop offset="0.3" stop-color="#ff0202"/><stop offset="0.43" stop-color="#ff0a0a"/><stop offset="0.54" stop-color="#ff1616"/><stop offset="0.63" stop-color="#ff2929"/><stop offset="0.71" stop-color="#ff4040"/><stop offset="0.78" stop-color="#ff5e5e"/><stop offset="0.84" stop-color="#ff8080"/><stop offset="0.9" stop-color="#ffa9a9"/><stop offset="0.96" stop-color="#ffd5d5"/><stop offset="1" stop-color="#fff"/></linearGradient><linearGradient id="Безымянный_градиент_32-2" x1="108.73" y1="287.04" x2="146.48" y2="287.04" xlink:href="#Безымянный_градиент_32"/><linearGradient id="Безымянный_градиент_32-3" x1="108.73" y1="309.82" x2="146.48" y2="309.82" xlink:href="#Безымянный_градиент_32"/></defs><title>без продаж</title><g id="_1_2ФИНАЛ" data-name="1+2ФИНАЛ"><rect class="cls-1" x="498.31" y="237.73" width="79.17" height="79.17" rx="10.88"/><rect class="cls-1" x="913.53" y="13.17" width="79.17" height="79.17" rx="10.88"/><rect class="cls-1" x="913.53" y="237.33" width="79.17" height="79.17" rx="10.88"/><rect class="cls-1" x="498.32" y="13.17" width="79.17" height="79.17" rx="10.88"/><polygon class="cls-2" points="505.71 31.89 505.71 50.96 502.93 50.96 501.39 31.89 505.71 31.89"/><path class="cls-2" d="M533.09,51.81A2.8,2.8,0,0,1,530.9,54a3,3,0,0,1-1.57-.15l-10.88-3.49-1.16-1.05s-2.49-2.44-3.65-2.55a8,8,0,0,0-2.77.48,20.44,20.44,0,0,1-2.9.74V33.83h1.94l10.65-3.1s1.68-.15,1.83-.12,3,.38,3,.38L531.55,32a.57.57,0,0,1,.35.94l-6.22,7.45h-2a1.81,1.81,0,0,0-1.78,1.84,1.8,1.8,0,0,0,.65,1.41c.31.26.4.15,1.13.42h0c1.34.75,5.58,3.26,7.77,4.52l.11.06c.13.07.25.15.36.2l0,0A2.78,2.78,0,0,1,533.09,51.81Z"/><path class="cls-2" d="M546.37,19.21l-20,23.87,5.75,3.77a4.72,4.72,0,0,1,2.44,2.51,4.83,4.83,0,0,1,.12,3.22,4.56,4.56,0,0,1-4.44,3.2,3.56,3.56,0,0,1-.57,0,5.17,5.17,0,0,1-1.67-.4l-3.21-1.12-2.43-.76L536,64.92,562.78,33Zm-9.56,28c-3-2.72-3.54-7.12-1.12-9.82s6.84-2.68,9.88.05,3.54,7.12,1.12,9.82S539.85,49.92,536.81,47.19Z"/><path class="cls-2" d="M569.41,83l-13.27,1.14-3.06.27a4.51,4.51,0,0,0-2.19-2.21,4.59,4.59,0,0,0-2.1-.48H534.51a10.24,10.24,0,0,1-2.36-.54,9.31,9.31,0,0,1-3.8-2.4l0,0-3.74-3.3-4.63-4.07,0,0a3.08,3.08,0,0,1-1.07-2.85,3.1,3.1,0,0,1,5.25-1.71l6,4,1.76,1.16a10.49,10.49,0,0,0,2.68,1.28l3,.48,8.64.27,1.88,0A.95.95,0,0,0,548,72h-7a3,3,0,0,1,.18-5.94H555.9a14.8,14.8,0,0,1,1.6.17s1.46.31,1.75.43a8.26,8.26,0,0,1,2,1,6.4,6.4,0,0,1,2.38,2.55c.17.23,1.75,3.19,2,3.59A56.24,56.24,0,0,1,568,80C568.07,80.18,569.41,83,569.41,83Z"/><line class="cls-2" x1="524.08" y1="66.72" x2="523.07" y2="66.06"/><polygon class="cls-2" points="571.22 85.08 571.22 89.29 552.34 89.29 552.34 86.64 571.22 85.08"/><line class="cls-3" x1="601.24" y1="135.27" x2="598.41" y2="135.51"/><line class="cls-3" x1="556.39" y1="86.43" x2="553.64" y2="86.66"/><line class="cls-4" x1="504.15" y1="19.21" x2="572.21" y2="86.43"/><line class="cls-5" x1="567.66" y1="250.76" x2="558.18" y2="250.76"/><line class="cls-5" x1="558.18" y1="250.76" x2="549.64" y2="288.95"/><line class="cls-5" x1="512.84" y1="258" x2="519.87" y2="288.95"/><line class="cls-5" x1="556.56" y1="258" x2="512.84" y2="258"/><line class="cls-5" x1="554.07" y1="269.16" x2="515.37" y2="269.16"/><line class="cls-5" x1="551.57" y1="280.32" x2="517.91" y2="280.32"/><line class="cls-5" x1="549.64" y1="288.95" x2="519.87" y2="288.95"/><line class="cls-5" x1="534.75" y1="258" x2="534.75" y2="280.32"/><line class="cls-5" x1="546.66" y1="258" x2="543.13" y2="280.32"/><line class="cls-5" x1="523.41" y1="258" x2="526.94" y2="280.32"/><circle class="cls-2" cx="545.59" cy="296.52" r="3.62"/><circle class="cls-2" cx="524.41" cy="296.52" r="3.62"/><line class="cls-4" x1="503.86" y1="243.77" x2="571.92" y2="311"/><text class="cls-6" transform="translate(942.74 53.74)">P</text><line class="cls-7" x1="942.47" y1="48.91" x2="956.3" y2="48.91"/><polygon class="cls-8" points="978.38 54 978.38 85.5 967.8 85.5 967.8 59.16 973.01 54 978.38 54"/><polygon class="cls-8" points="963.88 63.05 963.88 85.5 953.3 85.5 953.3 73.54 963.88 63.05"/><polygon class="cls-8" points="949.38 70.3 949.38 85.5 938.8 85.5 938.8 61.54 949.38 70.3"/><polygon class="cls-8" points="934.88 65.29 934.88 85.5 924.3 85.5 924.3 75.39 934.88 65.29"/><path class="cls-9" d="M920,74.27,938.84,56.6,953.3,68.35,984,38.25"/><polygon class="cls-10" points="986.26 35.97 973.09 39.49 982.73 49.13 986.26 35.97"/><text class="cls-11" transform="translate(476.17 126.35)">Без вложений</text><text class="cls-11" transform="translate(487.62 349.92)">Без продаж</text><text class="cls-11" transform="translate(843.64 126.35)">Долгосрочность проекта</text><text class="cls-11" transform="translate(846.09 349.91)">Еженедельные выплаты</text><rect class="cls-1" x="81.94" y="237.73" width="79.17" height="79.17" rx="10.88"/><text class="cls-12" transform="translate(97.32 259.11)">1</text><text class="cls-12" transform="translate(97.32 282.07)">2</text><text class="cls-12" transform="translate(97.32 304.9)">3</text><circle class="cls-13" cx="101.32" cy="254.43" r="9.72"/><circle class="cls-13" cx="101.32" cy="277.32" r="9.72"/><circle class="cls-13" cx="101.32" cy="300.21" r="9.72"/><path class="cls-14" d="M113.73,252.65c8.75,6.9,9.25,11.5,9.25,11.5S127.61,251,142.86,244"/><path class="cls-15" d="M113.73,275.54c8.75,6.9,9.25,11.5,9.25,11.5s4.63-13.11,19.88-20.13"/><path class="cls-16" d="M113.73,298.77c8.75,6.9,9.25,11.5,9.25,11.5s4.63-13.11,19.88-20.13"/><line class="cls-17" x1="108.86" y1="264.15" x2="146.36" y2="264.15"/><line class="cls-18" x1="108.86" y1="287.04" x2="146.36" y2="287.04"/><line class="cls-19" x1="108.86" y1="309.82" x2="146.36" y2="309.82"/><text class="cls-11" transform="translate(0.62 350.64)">Простой алгоритм действий</text><path class="cls-20" d="M948.78,306.86a30.25,30.25,0,1,1,34.58-29.94"/><ellipse class="cls-21" cx="963.17" cy="296.49" rx="7.94" ry="4.12"/><path class="cls-22" d="M971.11,296.49v3.33c0,2.27-3.55,4.12-7.94,4.12s-7.94-1.85-7.94-4.12v-3.33a2.54,2.54,0,0,0,.68,1.67c1.24,1.44,4,2.44,7.26,2.44s6-1,7.26-2.44A2.54,2.54,0,0,0,971.11,296.49Z"/><path class="cls-21" d="M971.11,299.06v3.33c0,2.27-3.55,4.12-7.94,4.12s-7.94-1.85-7.94-4.12v-3.33a2.54,2.54,0,0,0,.68,1.67c1.24,1.44,4,2.44,7.26,2.44s6-1,7.26-2.44A2.54,2.54,0,0,0,971.11,299.06Z"/><path class="cls-22" d="M971.11,302.37v3.33c0,2.27-3.55,4.12-7.94,4.12s-7.94-1.85-7.94-4.12v-3.33a2.54,2.54,0,0,0,.68,1.67c1.24,1.44,4,2.44,7.26,2.44s6-1,7.26-2.44A2.54,2.54,0,0,0,971.11,302.37Z"/><path class="cls-21" d="M971.11,304.93v3.33c0,2.27-3.55,4.12-7.94,4.12s-7.94-1.85-7.94-4.12v-3.33a2.54,2.54,0,0,0,.68,1.67c1.24,1.44,4,2.44,7.26,2.44s6-1,7.26-2.44A2.54,2.54,0,0,0,971.11,304.93Z"/><ellipse class="cls-23" cx="980.34" cy="296.49" rx="7.94" ry="4.12"/><path class="cls-22" d="M988.28,296.49v3.33c0,2.27-3.55,4.12-7.94,4.12s-7.94-1.85-7.94-4.12v-3.33a2.54,2.54,0,0,0,.68,1.67c1.24,1.44,4,2.44,7.26,2.44s6-1,7.26-2.44A2.54,2.54,0,0,0,988.28,296.49Z"/><path class="cls-21" d="M988.28,299.06v3.33c0,2.27-3.55,4.12-7.94,4.12s-7.94-1.85-7.94-4.12v-3.33a2.54,2.54,0,0,0,.68,1.67c1.24,1.44,4,2.44,7.26,2.44s6-1,7.26-2.44A2.54,2.54,0,0,0,988.28,299.06Z"/><path class="cls-22" d="M988.28,302.37v3.33c0,2.27-3.55,4.12-7.94,4.12s-7.94-1.85-7.94-4.12v-3.33a2.54,2.54,0,0,0,.68,1.67c1.24,1.44,4,2.44,7.26,2.44s6-1,7.26-2.44A2.54,2.54,0,0,0,988.28,302.37Z"/><path class="cls-21" d="M988.28,304.93v3.33c0,2.27-3.55,4.12-7.94,4.12s-7.94-1.85-7.94-4.12v-3.33a2.54,2.54,0,0,0,.68,1.67c1.24,1.44,4,2.44,7.26,2.44s6-1,7.26-2.44A2.54,2.54,0,0,0,988.28,304.93Z"/><ellipse class="cls-21" cx="980.34" cy="284.42" rx="7.94" ry="4.12"/><path class="cls-22" d="M988.28,284.42v3.33c0,2.27-3.55,4.12-7.94,4.12s-7.94-1.85-7.94-4.12v-3.33a2.54,2.54,0,0,0,.68,1.67c1.24,1.44,4,2.44,7.26,2.44s6-1,7.26-2.44A2.54,2.54,0,0,0,988.28,284.42Z"/><path class="cls-21" d="M988.28,287v3.33c0,2.27-3.55,4.12-7.94,4.12s-7.94-1.85-7.94-4.12V287a2.54,2.54,0,0,0,.68,1.67c1.24,1.44,4,2.44,7.26,2.44s6-1,7.26-2.44A2.54,2.54,0,0,0,988.28,287Z"/><path class="cls-22" d="M988.28,290.3v3.33c0,2.27-3.55,4.12-7.94,4.12s-7.94-1.85-7.94-4.12V290.3a2.54,2.54,0,0,0,.68,1.67c1.24,1.44,4,2.44,7.26,2.44s6-1,7.26-2.44A2.54,2.54,0,0,0,988.28,290.3Z"/><path class="cls-21" d="M988.28,292.87v3.33c0,2.26-3.55,4.12-7.94,4.12s-7.94-1.86-7.94-4.12v-3.33a2.55,2.55,0,0,0,.68,1.67c1.24,1.44,4,2.44,7.26,2.44s6-1,7.26-2.44A2.55,2.55,0,0,0,988.28,292.87Z"/><line class="cls-24" x1="956.24" y1="278.73" x2="956.24" y2="260.02"/><line class="cls-24" x1="955.65" y1="278.73" x2="938.8" y2="288.15"/><rect class="cls-1" x="81.94" y="13.17" width="79.17" height="79.17" rx="10.88"/><text class="cls-11" transform="translate(25.93 125.35)">Заработок на пассиве</text><path class="cls-2" d="M126,47.38a8.32,8.32,0,0,1-.6.71,8.61,8.61,0,0,1-4,2.36,8.29,8.29,0,0,1-2.24.3,8.66,8.66,0,0,1-6.25-2.66,8.32,8.32,0,0,1-.6-.71h-7.9a5.3,5.3,0,0,1-5.25,5.36,4.2,4.2,0,0,1-.93-.1V31.39a4.19,4.19,0,0,1,.93-.09,5.29,5.29,0,0,1,5.25,5.35h8l.15-.19a8.63,8.63,0,0,1,4-2.61V26.66l-9,1.3-.9.13a3.3,3.3,0,0,1,0-6.6l.89.13,9,1.28a2.92,2.92,0,0,1,5.64,0l9-1.28.89-.13a3.3,3.3,0,0,1,0,6.6l-.9-.13-9-1.3V34a8.72,8.72,0,0,1,3.72,2.66h6.13a11,11,0,0,1,11,10.73v7H134.3v-5a2,2,0,0,0-2.05-2H126"/><path class="cls-2" d="M148.27,78.14a8.07,8.07,0,0,1-2.53,3.5,13.57,13.57,0,0,1-5.11,2.48l-2.23.32-2.21-.32a13.73,13.73,0,0,1-5.13-2.48,8.29,8.29,0,0,1-2.52-3.5,10,10,0,0,1-.68-4.62c.07-1.5,1.76-7.6,10.54-18.26C147.2,65.92,148.88,72,149,73.52A9.91,9.91,0,0,1,148.27,78.14Z"/><path class="cls-22" d="M135.91,76.06a2.68,2.68,0,0,0,2.94,2.4c1.68,0,2.38-.83,2.38-2.06s-.63-2-3-2.63c-3.39-.94-4.33-2.35-4.33-4.43,0-2.51,1.61-4.33,4.63-4.33a4.46,4.46,0,0,1,4.87,4.29h-2.47a2.24,2.24,0,0,0-2.47-2.13c-1.29,0-2.05.65-2.05,1.86s.62,1.66,2.78,2.25c3.77,1,4.54,2.71,4.54,4.79,0,2.66-1.72,4.57-5.08,4.57a4.81,4.81,0,0,1-5.22-4.58Z"/><line class="cls-25" x1="139.44" y1="82.4" x2="139.44" y2="63.06"/><line class="cls-25" x1="137.6" y1="82.4" x2="137.6" y2="63.06"/></g></svg>