<svg xmlns="http://www.w3.org/2000/svg" xmlns:xlink="http://www.w3.org/1999/xlink" viewBox="0 0 1301.33 498.17"><defs><style>.cls-1{opacity:0.04;}.cls-2{fill:url(#Безымянный_градиент_42);}.cls-3{fill:url(#Черно-белый);}.cls-4{fill:url(#Безымянный_градиент_42-2);}.cls-5{fill:url(#Черно-белый-2);}.cls-6{fill:url(#Безымянный_градиент_42-3);}.cls-7{fill:url(#Черно-белый-3);}.cls-8{fill:url(#Безымянный_градиент_42-4);}.cls-9{fill:url(#Черно-белый-4);}.cls-10{fill:url(#Безымянный_градиент_42-5);}.cls-11{fill:url(#Черно-белый-5);}.cls-12{fill:url(#Безымянный_градиент_42-6);}.cls-13{fill:url(#Черно-белый-6);}.cls-14{fill:url(#Безымянный_градиент_42-7);}.cls-15{fill:url(#Черно-белый-7);}.cls-16{fill:url(#Безымянный_градиент_42-8);}.cls-17{fill:url(#Черно-белый-8);}.cls-18{opacity:0.07;}.cls-19,.cls-20,.cls-21,.cls-22,.cls-23,.cls-24,.cls-25{fill:none;stroke-miterlimit:10;stroke-width:3px;}.cls-19{stroke:url(#Безымянный_градиент_45);}.cls-20{stroke:url(#Безымянный_градиент_45-2);}.cls-21{stroke:url(#Безымянный_градиент_45-3);}.cls-22{stroke:url(#Безымянный_градиент_45-4);}.cls-23{stroke:url(#Безымянный_градиент_45-5);}.cls-24{stroke:url(#Безымянный_градиент_45-6);}.cls-25{stroke:url(#Безымянный_градиент_45-7);}.cls-26{fill:#28bfad;}.cls-27{fill:#1c827f;}.cls-28{fill:#1c5969;}.cls-29{fill:#1d445d;}.cls-30{fill:#1d3354;}.cls-31{fill:#1d1543;}.cls-32{fill:url(#Безымянный_градиент_12);}.cls-33{font-size:24px;fill:#333;font-family:MalgunGothicBold, Malgun Gothic;}.cls-34{fill:url(#Безымянный_градиент_15);}.cls-35{fill:url(#Безымянный_градиент_17);}.cls-36{fill:url(#Безымянный_градиент_19);}.cls-37{fill:url(#Безымянный_градиент_20);}.cls-38{fill:url(#Безымянный_градиент_21);}</style><linearGradient id="Безымянный_градиент_42" x1="-618.17" y1="-391.5" x2="1030.83" y2="-391.5" gradientUnits="userSpaceOnUse"><stop offset="0" stop-color="#fff"/><stop offset="0.2" stop-color="#fcfcfc"/><stop offset="0.33" stop-color="#f3f3f3"/><stop offset="0.45" stop-color="#e4e4e4"/><stop offset="0.55" stop-color="#cfcfcf"/><stop offset="0.65" stop-color="#b3b3b3"/><stop offset="0.74" stop-color="#919191"/><stop offset="0.83" stop-color="#686868"/><stop offset="0.91" stop-color="#393939"/><stop offset="0.99" stop-color="#050505"/><stop offset="1"/></linearGradient><linearGradient id="Черно-белый" x1="-619.58" y1="-392.53" x2="1030.83" y2="-392.53" gradientUnits="userSpaceOnUse"><stop offset="0" stop-color="#fff"/><stop offset="1"/></linearGradient><linearGradient id="Безымянный_градиент_42-2" x1="-618.17" y1="-415.5" x2="1030.83" y2="-415.5" xlink:href="#Безымянный_градиент_42"/><linearGradient id="Черно-белый-2" x1="-619.58" y1="-416.53" x2="1030.83" y2="-416.53" xlink:href="#Черно-белый"/><linearGradient id="Безымянный_градиент_42-3" x1="-618.17" y1="-439.5" x2="1030.83" y2="-439.5" xlink:href="#Безымянный_градиент_42"/><linearGradient id="Черно-белый-3" x1="-619.58" y1="-440.53" x2="1030.83" y2="-440.53" xlink:href="#Черно-белый"/><linearGradient id="Безымянный_градиент_42-4" x1="-618.17" y1="-463.5" x2="1030.83" y2="-463.5" xlink:href="#Безымянный_градиент_42"/><linearGradient id="Черно-белый-4" x1="-619.58" y1="-464.53" x2="1030.83" y2="-464.53" xlink:href="#Черно-белый"/><linearGradient id="Безымянный_градиент_42-5" x1="-618.17" y1="-487.5" x2="1030.83" y2="-487.5" xlink:href="#Безымянный_градиент_42"/><linearGradient id="Черно-белый-5" x1="-619.58" y1="-488.53" x2="1030.83" y2="-488.53" xlink:href="#Черно-белый"/><linearGradient id="Безымянный_градиент_42-6" x1="-618.17" y1="-511.5" x2="1030.83" y2="-511.5" xlink:href="#Безымянный_градиент_42"/><linearGradient id="Черно-белый-6" x1="-619.58" y1="-512.53" x2="1030.83" y2="-512.53" xlink:href="#Черно-белый"/><linearGradient id="Безымянный_градиент_42-7" x1="-618.17" y1="-535.5" x2="1030.83" y2="-535.5" xlink:href="#Безымянный_градиент_42"/><linearGradient id="Черно-белый-7" x1="-619.58" y1="-536.53" x2="1030.83" y2="-536.53" xlink:href="#Черно-белый"/><linearGradient id="Безымянный_градиент_42-8" x1="-618.17" y1="-559.5" x2="1030.83" y2="-559.5" xlink:href="#Безымянный_градиент_42"/><linearGradient id="Черно-белый-8" x1="-619.58" y1="-560.53" x2="1030.83" y2="-560.53" xlink:href="#Черно-белый"/><linearGradient id="Безымянный_градиент_45" x1="-619.02" y1="-402.5" x2="1031.68" y2="-402.5" gradientUnits="userSpaceOnUse"><stop offset="0.48" stop-color="#fff"/><stop offset="0.56" stop-color="#c8c8c8"/><stop offset="0.68" stop-color="#828282"/><stop offset="0.79" stop-color="#4a4a4a"/><stop offset="0.88" stop-color="#222"/><stop offset="0.96" stop-color="#090909"/><stop offset="1"/></linearGradient><linearGradient id="Безымянный_градиент_45-2" x1="-619.02" y1="-426.5" x2="1031.68" y2="-426.5" xlink:href="#Безымянный_градиент_45"/><linearGradient id="Безымянный_градиент_45-3" x1="-619.02" y1="-450.5" x2="1031.68" y2="-450.5" xlink:href="#Безымянный_градиент_45"/><linearGradient id="Безымянный_градиент_45-4" x1="-619.02" y1="-474.5" x2="1031.68" y2="-474.5" xlink:href="#Безымянный_градиент_45"/><linearGradient id="Безымянный_градиент_45-5" x1="-619.02" y1="-498.5" x2="1031.68" y2="-498.5" xlink:href="#Безымянный_градиент_45"/><linearGradient id="Безымянный_градиент_45-6" x1="-619.02" y1="-522.5" x2="1031.68" y2="-522.5" xlink:href="#Безымянный_градиент_45"/><linearGradient id="Безымянный_градиент_45-7" x1="-619.02" y1="-546.5" x2="1031.68" y2="-546.5" xlink:href="#Безымянный_градиент_45"/><linearGradient id="Безымянный_градиент_12" x1="59.25" y1="45.94" x2="1301.33" y2="45.94" gradientUnits="userSpaceOnUse"><stop offset="0" stop-color="#fff"/><stop offset="1" stop-color="#28bfad"/></linearGradient><linearGradient id="Безымянный_градиент_15" x1="137.41" y1="136.57" x2="1301.33" y2="136.57" gradientUnits="userSpaceOnUse"><stop offset="0" stop-color="#fff"/><stop offset="1" stop-color="#1c827f"/></linearGradient><linearGradient id="Безымянный_градиент_17" x1="225.41" y1="217.95" x2="1301.33" y2="217.95" gradientUnits="userSpaceOnUse"><stop offset="0" stop-color="#fff"/><stop offset="1" stop-color="#1c5969"/></linearGradient><linearGradient id="Безымянный_градиент_19" x1="313.41" y1="299.33" x2="1301.33" y2="299.33" gradientUnits="userSpaceOnUse"><stop offset="0" stop-color="#fff"/><stop offset="1" stop-color="#1d445d"/></linearGradient><linearGradient id="Безымянный_градиент_20" x1="401.41" y1="380.72" x2="1301.33" y2="380.72" gradientUnits="userSpaceOnUse"><stop offset="0" stop-color="#fff"/><stop offset="1" stop-color="#1d3354"/></linearGradient><linearGradient id="Безымянный_градиент_21" x1="483.42" y1="462.1" x2="1301.33" y2="462.1" gradientUnits="userSpaceOnUse"><stop offset="0" stop-color="#fff"/><stop offset="1" stop-color="#1d1543"/></linearGradient></defs><title>ludi!</title><g id="КАРТИНКА"><g id="_Группа_3" data-name="&lt;Группа&gt;3" class="cls-1"><line class="cls-2" x1="-618.17" y1="-958.5" x2="1030.83" y2="175.5"/><polygon class="cls-3" points="-616.75 -960.56 1030.83 175.5 -619.58 -956.44 -616.75 -960.56"/><line class="cls-4" x1="-618.17" y1="-982.5" x2="1030.83" y2="151.5"/><polygon class="cls-5" points="-616.75 -984.56 1030.83 151.5 -619.58 -980.44 -616.75 -984.56"/><line class="cls-6" x1="-618.17" y1="-1006.5" x2="1030.83" y2="127.5"/><polygon class="cls-7" points="-616.75 -1008.56 1030.83 127.5 -619.58 -1004.44 -616.75 -1008.56"/><line class="cls-8" x1="-618.17" y1="-1030.5" x2="1030.83" y2="103.5"/><polygon class="cls-9" points="-616.75 -1032.56 1030.83 103.5 -619.58 -1028.44 -616.75 -1032.56"/><line class="cls-10" x1="-618.17" y1="-1054.5" x2="1030.83" y2="79.5"/><polygon class="cls-11" points="-616.75 -1056.56 1030.83 79.5 -619.58 -1052.44 -616.75 -1056.56"/><line class="cls-12" x1="-618.17" y1="-1078.5" x2="1030.83" y2="55.5"/><polygon class="cls-13" points="-616.75 -1080.56 1030.83 55.5 -619.58 -1076.44 -616.75 -1080.56"/><line class="cls-14" x1="-618.17" y1="-1102.5" x2="1030.83" y2="31.5"/><polygon class="cls-15" points="-616.75 -1104.56 1030.83 31.5 -619.58 -1100.44 -616.75 -1104.56"/><line class="cls-16" x1="-618.17" y1="-1126.5" x2="1030.83" y2="7.5"/><polygon class="cls-17" points="-616.75 -1128.56 1030.83 7.5 -619.58 -1124.44 -616.75 -1128.56"/></g><g id="_Группа_3-2" data-name="&lt;Группа&gt;3" class="cls-18"><line class="cls-19" x1="-618.17" y1="-969.5" x2="1030.83" y2="164.5"/><line class="cls-20" x1="-618.17" y1="-993.5" x2="1030.83" y2="140.5"/><line class="cls-21" x1="-618.17" y1="-1017.5" x2="1030.83" y2="116.5"/><line class="cls-22" x1="-618.17" y1="-1041.5" x2="1030.83" y2="92.5"/><line class="cls-23" x1="-618.17" y1="-1065.5" x2="1030.83" y2="68.5"/><line class="cls-24" x1="-618.17" y1="-1089.5" x2="1030.83" y2="44.5"/><line class="cls-25" x1="-618.17" y1="-1113.5" x2="1030.83" y2="20.5"/></g></g><g id="людишки"><circle class="cls-26" cx="21.83" cy="10.78" r="8.36"/><path class="cls-26" d="M42.67,54.06a2.44,2.44,0,0,1,0,.27,3,3,0,0,1-6,0v0h0v-.27c0-10.35-1.91-19.17-4.58-22.52V84.79a4.68,4.68,0,0,1-9.35,0V52.06H20.94V84.79a4.68,4.68,0,0,1-9.35,0V31.53C8.92,34.88,7,43.7,7,54.05v.27H7v0a3,3,0,0,1-6,0,2.44,2.44,0,0,1,0-.27c0-.47,0-.94,0-1.42C1,38,5.1,26.32,10.4,22.11a4.93,4.93,0,0,1,3.15-1H30.11a4.93,4.93,0,0,1,3.15,1c5.3,4.21,9.42,15.84,9.42,30.53C42.68,53.12,42.68,53.59,42.67,54.06Z"/><circle class="cls-27" cx="21.83" cy="108.87" r="6.58"/><path class="cls-27" d="M38.24,143a1.48,1.48,0,0,1,0,.21,2.38,2.38,0,0,1-4.75,0v0h0V143c0-8.15-1.5-15.1-3.61-17.74v42a3.68,3.68,0,0,1-7.36,0V141.39h-1.4v25.77a3.68,3.68,0,0,1-7.36,0V125.21c-2.11,2.64-3.61,9.59-3.61,17.74v.21h0v0a2.38,2.38,0,0,1-4.75,0,1.48,1.48,0,0,1,0-.21c0-.37,0-.74,0-1.12,0-11.57,3.24-20.73,7.42-24a3.93,3.93,0,0,1,2.48-.78h13a3.93,3.93,0,0,1,2.48.78c4.18,3.32,7.42,12.48,7.42,24C38.25,142.22,38.25,142.59,38.24,143Z"/><circle class="cls-27" cx="65.83" cy="108.87" r="6.58"/><path class="cls-27" d="M82.24,143a1.48,1.48,0,0,1,0,.21,2.38,2.38,0,0,1-4.75,0v0h0V143c0-8.15-1.5-15.1-3.61-17.74v42a3.68,3.68,0,0,1-7.36,0V141.39h-1.4v25.77a3.68,3.68,0,1,1-7.36,0V125.21c-2.11,2.64-3.61,9.59-3.61,17.74v.21h0v0a2.38,2.38,0,0,1-4.75,0,1.48,1.48,0,0,1,0-.21c0-.37,0-.74,0-1.12,0-11.57,3.24-20.73,7.42-24a3.93,3.93,0,0,1,2.48-.78h13a3.93,3.93,0,0,1,2.48.78c4.18,3.32,7.42,12.48,7.42,24C82.25,142.22,82.25,142.59,82.24,143Z"/><circle class="cls-27" cx="109.83" cy="108.87" r="6.58"/><path class="cls-27" d="M126.24,143a1.48,1.48,0,0,1,0,.21,2.38,2.38,0,0,1-4.75,0v0h0V143c0-8.15-1.5-15.1-3.61-17.74v42a3.68,3.68,0,0,1-7.36,0V141.39h-1.4v25.77a3.68,3.68,0,0,1-7.36,0V125.21c-2.11,2.64-3.61,9.59-3.61,17.74v.21h0v0a2.38,2.38,0,0,1-4.75,0,1.48,1.48,0,0,1,0-.21c0-.37,0-.74,0-1.12,0-11.57,3.24-20.73,7.42-24a3.93,3.93,0,0,1,2.48-.78h13a3.93,3.93,0,0,1,2.48.78c4.18,3.32,7.42,12.48,7.42,24C126.25,142.22,126.25,142.59,126.24,143Z"/><circle class="cls-28" cx="21.83" cy="190.26" r="6.58"/><path class="cls-28" d="M38.24,224.34a1.62,1.62,0,0,1,0,.22,2.38,2.38,0,0,1-4.75,0v0h0v-.21c0-8.16-1.5-15.1-3.61-17.74v42a3.68,3.68,0,0,1-7.36,0V222.77h-1.4v25.78a3.68,3.68,0,0,1-7.36,0v-42c-2.11,2.64-3.61,9.58-3.61,17.74v.21h0v0a2.38,2.38,0,0,1-4.75,0,1.62,1.62,0,0,1,0-.22c0-.37,0-.74,0-1.11,0-11.57,3.24-20.74,7.42-24a3.88,3.88,0,0,1,2.48-.79h13a3.88,3.88,0,0,1,2.48.79c4.18,3.31,7.42,12.48,7.42,24C38.25,223.6,38.25,224,38.24,224.34Z"/><circle class="cls-28" cx="65.83" cy="190.26" r="6.58"/><path class="cls-28" d="M82.24,224.34a1.62,1.62,0,0,1,0,.22,2.38,2.38,0,0,1-4.75,0v0h0v-.21c0-8.16-1.5-15.1-3.61-17.74v42a3.68,3.68,0,0,1-7.36,0V222.77h-1.4v25.78a3.68,3.68,0,1,1-7.36,0v-42c-2.11,2.64-3.61,9.58-3.61,17.74v.21h0v0a2.38,2.38,0,0,1-4.75,0,1.62,1.62,0,0,1,0-.22c0-.37,0-.74,0-1.11,0-11.57,3.24-20.74,7.42-24a3.88,3.88,0,0,1,2.48-.79h13a3.88,3.88,0,0,1,2.48.79c4.18,3.31,7.42,12.48,7.42,24C82.25,223.6,82.25,224,82.24,224.34Z"/><circle class="cls-28" cx="109.83" cy="190.26" r="6.58"/><path class="cls-28" d="M126.24,224.34a1.62,1.62,0,0,1,0,.22,2.38,2.38,0,0,1-4.75,0v0h0v-.21c0-8.16-1.5-15.1-3.61-17.74v42a3.68,3.68,0,0,1-7.36,0V222.77h-1.4v25.78a3.68,3.68,0,1,1-7.36,0v-42c-2.11,2.64-3.61,9.58-3.61,17.74v.21h0v0a2.38,2.38,0,0,1-4.75,0,1.62,1.62,0,0,1,0-.22c0-.37,0-.74,0-1.11,0-11.57,3.24-20.74,7.42-24a3.88,3.88,0,0,1,2.48-.79h13a3.88,3.88,0,0,1,2.48.79c4.18,3.31,7.42,12.48,7.42,24C126.25,223.6,126.25,224,126.24,224.34Z"/><circle class="cls-28" cx="153.83" cy="190.26" r="6.58"/><path class="cls-28" d="M170.24,224.34a1.62,1.62,0,0,1,0,.22,2.38,2.38,0,0,1-4.75,0v0h0v-.21c0-8.16-1.5-15.1-3.61-17.74v42a3.68,3.68,0,1,1-7.36,0V222.77h-1.4v25.78a3.68,3.68,0,1,1-7.36,0v-42c-2.11,2.64-3.61,9.58-3.61,17.74v.21h0v0a2.38,2.38,0,0,1-4.75,0,1.62,1.62,0,0,1,0-.22c0-.37,0-.74,0-1.11,0-11.57,3.24-20.74,7.42-24a3.88,3.88,0,0,1,2.48-.79h13a3.88,3.88,0,0,1,2.48.79c4.18,3.31,7.42,12.48,7.42,24C170.25,223.6,170.25,224,170.24,224.34Z"/><circle class="cls-28" cx="197.83" cy="190.26" r="6.58"/><path class="cls-28" d="M214.24,224.34a1.62,1.62,0,0,1,0,.22,2.38,2.38,0,0,1-4.75,0v0h0v-.21c0-8.16-1.5-15.1-3.61-17.74v42a3.68,3.68,0,1,1-7.36,0V222.77h-1.4v25.78a3.68,3.68,0,0,1-7.36,0v-42c-2.11,2.64-3.61,9.58-3.61,17.74v.21h0v0a2.38,2.38,0,0,1-4.75,0,1.62,1.62,0,0,1,0-.22c0-.37,0-.74,0-1.11,0-11.57,3.24-20.74,7.42-24a3.88,3.88,0,0,1,2.48-.79h13a3.88,3.88,0,0,1,2.48.79c4.18,3.31,7.42,12.48,7.42,24C214.25,223.6,214.25,224,214.24,224.34Z"/><circle class="cls-29" cx="21.83" cy="271.64" r="6.58"/><path class="cls-29" d="M38.24,305.73a1.48,1.48,0,0,1,0,.21,2.38,2.38,0,0,1-4.75,0v0h0v-.21c0-8.15-1.5-15.1-3.61-17.74v41.95a3.68,3.68,0,0,1-7.36,0V304.15h-1.4v25.78a3.68,3.68,0,0,1-7.36,0V288c-2.11,2.64-3.61,9.59-3.61,17.74v.21h0v0a2.38,2.38,0,0,1-4.75,0,1.48,1.48,0,0,1,0-.21c0-.37,0-.75,0-1.12,0-11.57,3.24-20.74,7.42-24.05a3.87,3.87,0,0,1,2.48-.78h13a3.87,3.87,0,0,1,2.48.78c4.18,3.31,7.42,12.48,7.42,24.05C38.25,305,38.25,305.36,38.24,305.73Z"/><circle class="cls-29" cx="65.83" cy="271.64" r="6.58"/><path class="cls-29" d="M82.24,305.73a1.48,1.48,0,0,1,0,.21,2.38,2.38,0,0,1-4.75,0v0h0v-.21c0-8.15-1.5-15.1-3.61-17.74v41.95a3.68,3.68,0,0,1-7.36,0V304.15h-1.4v25.78a3.68,3.68,0,1,1-7.36,0V288c-2.11,2.64-3.61,9.59-3.61,17.74v.21h0v0a2.38,2.38,0,0,1-4.75,0,1.48,1.48,0,0,1,0-.21c0-.37,0-.75,0-1.12,0-11.57,3.24-20.74,7.42-24.05a3.87,3.87,0,0,1,2.48-.78h13a3.87,3.87,0,0,1,2.48.78c4.18,3.31,7.42,12.48,7.42,24.05C82.25,305,82.25,305.36,82.24,305.73Z"/><circle class="cls-29" cx="109.83" cy="271.64" r="6.58"/><path class="cls-29" d="M126.24,305.73a1.48,1.48,0,0,1,0,.21,2.38,2.38,0,0,1-4.75,0v0h0v-.21c0-8.15-1.5-15.1-3.61-17.74v41.95a3.68,3.68,0,0,1-7.36,0V304.15h-1.4v25.78a3.68,3.68,0,1,1-7.36,0V288c-2.11,2.64-3.61,9.59-3.61,17.74v.21h0v0a2.38,2.38,0,0,1-4.75,0,1.48,1.48,0,0,1,0-.21c0-.37,0-.75,0-1.12,0-11.57,3.24-20.74,7.42-24.05a3.87,3.87,0,0,1,2.48-.78h13a3.87,3.87,0,0,1,2.48.78c4.18,3.31,7.42,12.48,7.42,24.05C126.25,305,126.25,305.36,126.24,305.73Z"/><circle class="cls-29" cx="153.83" cy="271.64" r="6.58"/><path class="cls-29" d="M170.24,305.73a1.48,1.48,0,0,1,0,.21,2.38,2.38,0,0,1-4.75,0v0h0v-.21c0-8.15-1.5-15.1-3.61-17.74v41.95a3.68,3.68,0,1,1-7.36,0V304.15h-1.4v25.78a3.68,3.68,0,0,1-7.36,0V288c-2.11,2.64-3.61,9.59-3.61,17.74v.21h0v0a2.38,2.38,0,0,1-4.75,0,1.48,1.48,0,0,1,0-.21c0-.37,0-.75,0-1.12,0-11.57,3.24-20.74,7.42-24.05a3.87,3.87,0,0,1,2.48-.78h13a3.87,3.87,0,0,1,2.48.78c4.18,3.31,7.42,12.48,7.42,24.05C170.25,305,170.25,305.36,170.24,305.73Z"/><circle class="cls-29" cx="197.83" cy="271.64" r="6.58"/><path class="cls-29" d="M214.24,305.73a1.48,1.48,0,0,1,0,.21,2.38,2.38,0,0,1-4.75,0v0h0v-.21c0-8.15-1.5-15.1-3.61-17.74v41.95a3.68,3.68,0,1,1-7.36,0V304.15h-1.4v25.78a3.68,3.68,0,0,1-7.36,0V288c-2.11,2.64-3.61,9.59-3.61,17.74v.21h0v0a2.38,2.38,0,0,1-4.75,0,1.48,1.48,0,0,1,0-.21c0-.37,0-.75,0-1.12,0-11.57,3.24-20.74,7.42-24.05a3.87,3.87,0,0,1,2.48-.78h13a3.87,3.87,0,0,1,2.48.78c4.18,3.31,7.42,12.48,7.42,24.05C214.25,305,214.25,305.36,214.24,305.73Z"/><circle class="cls-29" cx="241.83" cy="271.64" r="6.58"/><path class="cls-29" d="M258.24,305.73a1.48,1.48,0,0,1,0,.21,2.38,2.38,0,0,1-4.75,0v0h0v-.21c0-8.15-1.5-15.1-3.61-17.74v41.95a3.68,3.68,0,0,1-7.36,0V304.15h-1.4v25.78a3.68,3.68,0,0,1-7.36,0V288c-2.11,2.64-3.61,9.59-3.61,17.74v.21h0v0a2.38,2.38,0,0,1-4.75,0,1.48,1.48,0,0,1,0-.21c0-.37,0-.75,0-1.12,0-11.57,3.24-20.74,7.42-24.05a3.87,3.87,0,0,1,2.48-.78h13a3.87,3.87,0,0,1,2.48.78c4.18,3.31,7.42,12.48,7.42,24.05C258.25,305,258.25,305.36,258.24,305.73Z"/><circle class="cls-29" cx="285.83" cy="271.64" r="6.58"/><path class="cls-29" d="M302.24,305.73a1.48,1.48,0,0,1,0,.21,2.38,2.38,0,0,1-4.75,0v0h0v-.21c0-8.15-1.5-15.1-3.61-17.74v41.95a3.68,3.68,0,0,1-7.36,0V304.15h-1.4v25.78a3.68,3.68,0,0,1-7.36,0V288c-2.11,2.64-3.61,9.59-3.61,17.74v.21h0v0a2.38,2.38,0,0,1-4.75,0,1.48,1.48,0,0,1,0-.21c0-.37,0-.75,0-1.12,0-11.57,3.24-20.74,7.42-24.05a3.87,3.87,0,0,1,2.48-.78h13a3.87,3.87,0,0,1,2.48.78c4.18,3.31,7.42,12.48,7.42,24.05C302.25,305,302.25,305.36,302.24,305.73Z"/><circle class="cls-30" cx="21.83" cy="353.02" r="6.58"/><path class="cls-30" d="M38.24,387.11a1.48,1.48,0,0,1,0,.21,2.38,2.38,0,0,1-4.75,0v0h0v-.21c0-8.15-1.5-15.1-3.61-17.74v41.95a3.68,3.68,0,0,1-7.36,0V385.54h-1.4v25.77a3.68,3.68,0,0,1-7.36,0V369.36C11.66,372,10.16,379,10.16,387.1v.21h0v0a2.38,2.38,0,0,1-4.75,0,1.48,1.48,0,0,1,0-.21c0-.37,0-.74,0-1.12,0-11.57,3.24-20.73,7.42-24.05a3.93,3.93,0,0,1,2.48-.78h13a3.93,3.93,0,0,1,2.48.78c4.18,3.32,7.42,12.48,7.42,24.05C38.25,386.37,38.25,386.74,38.24,387.11Z"/><circle class="cls-30" cx="65.83" cy="353.02" r="6.58"/><path class="cls-30" d="M82.24,387.11a1.48,1.48,0,0,1,0,.21,2.38,2.38,0,0,1-4.75,0v0h0v-.21c0-8.15-1.5-15.1-3.61-17.74v41.95a3.68,3.68,0,0,1-7.36,0V385.54h-1.4v25.77a3.68,3.68,0,1,1-7.36,0V369.36C55.66,372,54.16,379,54.16,387.1v.21h0v0a2.38,2.38,0,0,1-4.75,0,1.48,1.48,0,0,1,0-.21c0-.37,0-.74,0-1.12,0-11.57,3.24-20.73,7.42-24.05a3.93,3.93,0,0,1,2.48-.78h13a3.93,3.93,0,0,1,2.48.78c4.18,3.32,7.42,12.48,7.42,24.05C82.25,386.37,82.25,386.74,82.24,387.11Z"/><circle class="cls-30" cx="109.83" cy="353.02" r="6.58"/><path class="cls-30" d="M126.24,387.11a1.48,1.48,0,0,1,0,.21,2.38,2.38,0,0,1-4.75,0v0h0v-.21c0-8.15-1.5-15.1-3.61-17.74v41.95a3.68,3.68,0,0,1-7.36,0V385.54h-1.4v25.77a3.68,3.68,0,1,1-7.36,0V369.36C99.66,372,98.16,379,98.16,387.1v.21h0v0a2.38,2.38,0,0,1-4.75,0,1.48,1.48,0,0,1,0-.21c0-.37,0-.74,0-1.12,0-11.57,3.24-20.73,7.42-24.05a3.93,3.93,0,0,1,2.48-.78h13a3.93,3.93,0,0,1,2.48.78c4.18,3.32,7.42,12.48,7.42,24.05C126.25,386.37,126.25,386.74,126.24,387.11Z"/><circle class="cls-30" cx="153.83" cy="353.02" r="6.58"/><path class="cls-30" d="M170.24,387.11a1.48,1.48,0,0,1,0,.21,2.38,2.38,0,0,1-4.75,0v0h0v-.21c0-8.15-1.5-15.1-3.61-17.74v41.95a3.68,3.68,0,1,1-7.36,0V385.54h-1.4v25.77a3.68,3.68,0,0,1-7.36,0V369.36c-2.11,2.64-3.61,9.59-3.61,17.74v.21h0v0a2.38,2.38,0,0,1-4.75,0,1.48,1.48,0,0,1,0-.21c0-.37,0-.74,0-1.12,0-11.57,3.24-20.73,7.42-24.05a3.93,3.93,0,0,1,2.48-.78h13a3.93,3.93,0,0,1,2.48.78c4.18,3.32,7.42,12.48,7.42,24.05C170.25,386.37,170.25,386.74,170.24,387.11Z"/><circle class="cls-30" cx="197.83" cy="353.02" r="6.58"/><path class="cls-30" d="M214.24,387.11a1.48,1.48,0,0,1,0,.21,2.38,2.38,0,0,1-4.75,0v0h0v-.21c0-8.15-1.5-15.1-3.61-17.74v41.95a3.68,3.68,0,1,1-7.36,0V385.54h-1.4v25.77a3.68,3.68,0,0,1-7.36,0V369.36c-2.11,2.64-3.61,9.59-3.61,17.74v.21h0v0a2.38,2.38,0,0,1-4.75,0,1.48,1.48,0,0,1,0-.21c0-.37,0-.74,0-1.12,0-11.57,3.24-20.73,7.42-24.05a3.93,3.93,0,0,1,2.48-.78h13a3.93,3.93,0,0,1,2.48.78c4.18,3.32,7.42,12.48,7.42,24.05C214.25,386.37,214.25,386.74,214.24,387.11Z"/><circle class="cls-30" cx="241.83" cy="353.02" r="6.58"/><path class="cls-30" d="M258.24,387.11a1.48,1.48,0,0,1,0,.21,2.38,2.38,0,0,1-4.75,0v0h0v-.21c0-8.15-1.5-15.1-3.61-17.74v41.95a3.68,3.68,0,1,1-7.36,0V385.54h-1.4v25.77a3.68,3.68,0,0,1-7.36,0V369.36c-2.11,2.64-3.61,9.59-3.61,17.74v.21h0v0a2.38,2.38,0,0,1-4.75,0,1.48,1.48,0,0,1,0-.21c0-.37,0-.74,0-1.12,0-11.57,3.24-20.73,7.42-24.05a3.93,3.93,0,0,1,2.48-.78h13a3.93,3.93,0,0,1,2.48.78c4.18,3.32,7.42,12.48,7.42,24.05C258.25,386.37,258.25,386.74,258.24,387.11Z"/><circle class="cls-30" cx="285.83" cy="353.02" r="6.58"/><path class="cls-30" d="M302.24,387.11a1.48,1.48,0,0,1,0,.21,2.38,2.38,0,0,1-4.75,0v0h0v-.21c0-8.15-1.5-15.1-3.61-17.74v41.95a3.68,3.68,0,0,1-7.36,0V385.54h-1.4v25.77a3.68,3.68,0,0,1-7.36,0V369.36c-2.11,2.64-3.61,9.59-3.61,17.74v.21h0v0a2.38,2.38,0,0,1-4.75,0,1.48,1.48,0,0,1,0-.21c0-.37,0-.74,0-1.12,0-11.57,3.24-20.73,7.42-24.05a3.93,3.93,0,0,1,2.48-.78h13a3.93,3.93,0,0,1,2.48.78c4.18,3.32,7.42,12.48,7.42,24.05C302.25,386.37,302.25,386.74,302.24,387.11Z"/><circle class="cls-31" cx="21.83" cy="434.41" r="6.58"/><path class="cls-31" d="M38.24,468.49a1.7,1.7,0,0,1,0,.22,2.38,2.38,0,0,1-4.75,0v0h0v-.21c0-8.16-1.5-15.1-3.61-17.74V492.7a3.68,3.68,0,0,1-7.36,0V466.92h-1.4V492.7a3.68,3.68,0,0,1-7.36,0V450.75c-2.11,2.64-3.61,9.58-3.61,17.74v.21h0v0a2.38,2.38,0,0,1-4.75,0,1.7,1.7,0,0,1,0-.22c0-.37,0-.74,0-1.11,0-11.57,3.24-20.74,7.42-24.05a3.88,3.88,0,0,1,2.48-.79h13a3.88,3.88,0,0,1,2.48.79c4.18,3.31,7.42,12.48,7.42,24.05C38.25,467.75,38.25,468.12,38.24,468.49Z"/><circle class="cls-31" cx="65.83" cy="434.41" r="6.58"/><path class="cls-31" d="M82.24,468.49a1.7,1.7,0,0,1,0,.22,2.38,2.38,0,0,1-4.75,0v0h0v-.21c0-8.16-1.5-15.1-3.61-17.74V492.7a3.68,3.68,0,0,1-7.36,0V466.92h-1.4V492.7a3.68,3.68,0,1,1-7.36,0V450.75c-2.11,2.64-3.61,9.58-3.61,17.74v.21h0v0a2.38,2.38,0,0,1-4.75,0,1.7,1.7,0,0,1,0-.22c0-.37,0-.74,0-1.11,0-11.57,3.24-20.74,7.42-24.05a3.88,3.88,0,0,1,2.48-.79h13a3.88,3.88,0,0,1,2.48.79c4.18,3.31,7.42,12.48,7.42,24.05C82.25,467.75,82.25,468.12,82.24,468.49Z"/><circle class="cls-31" cx="109.83" cy="434.41" r="6.58"/><path class="cls-31" d="M126.24,468.49a1.7,1.7,0,0,1,0,.22,2.38,2.38,0,0,1-4.75,0v0h0v-.21c0-8.16-1.5-15.1-3.61-17.74V492.7a3.68,3.68,0,0,1-7.36,0V466.92h-1.4V492.7a3.68,3.68,0,1,1-7.36,0V450.75c-2.11,2.64-3.61,9.58-3.61,17.74v.21h0v0a2.38,2.38,0,0,1-4.75,0,1.7,1.7,0,0,1,0-.22c0-.37,0-.74,0-1.11,0-11.57,3.24-20.74,7.42-24.05a3.88,3.88,0,0,1,2.48-.79h13a3.88,3.88,0,0,1,2.48.79c4.18,3.31,7.42,12.48,7.42,24.05C126.25,467.75,126.25,468.12,126.24,468.49Z"/><circle class="cls-31" cx="153.83" cy="434.41" r="6.58"/><path class="cls-31" d="M170.24,468.49a1.7,1.7,0,0,1,0,.22,2.38,2.38,0,0,1-4.75,0v0h0v-.21c0-8.16-1.5-15.1-3.61-17.74V492.7a3.68,3.68,0,1,1-7.36,0V466.92h-1.4V492.7a3.68,3.68,0,0,1-7.36,0V450.75c-2.11,2.64-3.61,9.58-3.61,17.74v.21h0v0a2.38,2.38,0,0,1-4.75,0,1.7,1.7,0,0,1,0-.22c0-.37,0-.74,0-1.11,0-11.57,3.24-20.74,7.42-24.05a3.88,3.88,0,0,1,2.48-.79h13a3.88,3.88,0,0,1,2.48.79c4.18,3.31,7.42,12.48,7.42,24.05C170.25,467.75,170.25,468.12,170.24,468.49Z"/><circle class="cls-31" cx="197.83" cy="434.41" r="6.58"/><path class="cls-31" d="M214.24,468.49a1.7,1.7,0,0,1,0,.22,2.38,2.38,0,0,1-4.75,0v0h0v-.21c0-8.16-1.5-15.1-3.61-17.74V492.7a3.68,3.68,0,1,1-7.36,0V466.92h-1.4V492.7a3.68,3.68,0,0,1-7.36,0V450.75c-2.11,2.64-3.61,9.58-3.61,17.74v.21h0v0a2.38,2.38,0,0,1-4.75,0,1.7,1.7,0,0,1,0-.22c0-.37,0-.74,0-1.11,0-11.57,3.24-20.74,7.42-24.05a3.88,3.88,0,0,1,2.48-.79h13a3.88,3.88,0,0,1,2.48.79c4.18,3.31,7.42,12.48,7.42,24.05C214.25,467.75,214.25,468.12,214.24,468.49Z"/><circle class="cls-31" cx="241.83" cy="434.41" r="6.58"/><path class="cls-31" d="M258.24,468.49a1.7,1.7,0,0,1,0,.22,2.38,2.38,0,0,1-4.75,0v0h0v-.21c0-8.16-1.5-15.1-3.61-17.74V492.7a3.68,3.68,0,1,1-7.36,0V466.92h-1.4V492.7a3.68,3.68,0,1,1-7.36,0V450.75c-2.11,2.64-3.61,9.58-3.61,17.74v.21h0v0a2.38,2.38,0,0,1-4.75,0,1.7,1.7,0,0,1,0-.22c0-.37,0-.74,0-1.11,0-11.57,3.24-20.74,7.42-24.05a3.88,3.88,0,0,1,2.48-.79h13a3.88,3.88,0,0,1,2.48.79c4.18,3.31,7.42,12.48,7.42,24.05C258.25,467.75,258.25,468.12,258.24,468.49Z"/><circle class="cls-31" cx="285.83" cy="434.41" r="6.58"/><path class="cls-31" d="M302.24,468.49a1.7,1.7,0,0,1,0,.22,2.38,2.38,0,0,1-4.75,0v0h0v-.21c0-8.16-1.5-15.1-3.61-17.74V492.7a3.68,3.68,0,0,1-7.36,0V466.92h-1.4V492.7a3.68,3.68,0,0,1-7.36,0V450.75c-2.11,2.64-3.61,9.58-3.61,17.74v.21h0v0a2.38,2.38,0,0,1-4.75,0,1.7,1.7,0,0,1,0-.22c0-.37,0-.74,0-1.11,0-11.57,3.24-20.74,7.42-24.05a3.88,3.88,0,0,1,2.48-.79h13a3.88,3.88,0,0,1,2.48.79c4.18,3.31,7.42,12.48,7.42,24.05C302.25,467.75,302.25,468.12,302.24,468.49Z"/><circle class="cls-30" cx="329.83" cy="353.02" r="6.58"/><path class="cls-30" d="M346.24,387.11a1.48,1.48,0,0,1,0,.21,2.38,2.38,0,0,1-4.75,0v0h0v-.21c0-8.15-1.5-15.1-3.61-17.74v41.95a3.68,3.68,0,0,1-7.36,0V385.54h-1.4v25.77a3.68,3.68,0,0,1-7.36,0V369.36c-2.11,2.64-3.61,9.59-3.61,17.74v.21h0v0a2.38,2.38,0,0,1-4.75,0,1.48,1.48,0,0,1,0-.21c0-.37,0-.74,0-1.12,0-11.57,3.24-20.73,7.42-24.05a3.93,3.93,0,0,1,2.48-.78h13a3.93,3.93,0,0,1,2.48.78c4.18,3.32,7.42,12.48,7.42,24.05C346.25,386.37,346.25,386.74,346.24,387.11Z"/><circle class="cls-30" cx="373.83" cy="353.02" r="6.58"/><path class="cls-30" d="M390.24,387.11a1.48,1.48,0,0,1,0,.21,2.38,2.38,0,0,1-4.75,0v0h0v-.21c0-8.15-1.5-15.1-3.61-17.74v41.95a3.68,3.68,0,0,1-7.36,0V385.54h-1.4v25.77a3.68,3.68,0,0,1-7.36,0V369.36c-2.11,2.64-3.61,9.59-3.61,17.74v.21h0v0a2.38,2.38,0,0,1-4.75,0,1.48,1.48,0,0,1,0-.21c0-.37,0-.74,0-1.12,0-11.57,3.24-20.73,7.42-24.05a3.93,3.93,0,0,1,2.48-.78h13a3.93,3.93,0,0,1,2.48.78c4.18,3.32,7.42,12.48,7.42,24.05C390.25,386.37,390.25,386.74,390.24,387.11Z"/><circle class="cls-31" cx="329.83" cy="434.41" r="6.58"/><path class="cls-31" d="M346.24,468.49a1.7,1.7,0,0,1,0,.22,2.38,2.38,0,0,1-4.75,0v0h0v-.21c0-8.16-1.5-15.1-3.61-17.74V492.7a3.68,3.68,0,0,1-7.36,0V466.92h-1.4V492.7a3.68,3.68,0,0,1-7.36,0V450.75c-2.11,2.64-3.61,9.58-3.61,17.74v.21h0v0a2.38,2.38,0,0,1-4.75,0,1.7,1.7,0,0,1,0-.22c0-.37,0-.74,0-1.11,0-11.57,3.24-20.74,7.42-24.05a3.88,3.88,0,0,1,2.48-.79h13a3.88,3.88,0,0,1,2.48.79c4.18,3.31,7.42,12.48,7.42,24.05C346.25,467.75,346.25,468.12,346.24,468.49Z"/><circle class="cls-31" cx="373.83" cy="434.41" r="6.58"/><path class="cls-31" d="M390.24,468.49a1.7,1.7,0,0,1,0,.22,2.38,2.38,0,0,1-4.75,0v0h0v-.21c0-8.16-1.5-15.1-3.61-17.74V492.7a3.68,3.68,0,0,1-7.36,0V466.92h-1.4V492.7a3.68,3.68,0,0,1-7.36,0V450.75c-2.11,2.64-3.61,9.58-3.61,17.74v.21h0v0a2.38,2.38,0,0,1-4.75,0,1.7,1.7,0,0,1,0-.22c0-.37,0-.74,0-1.11,0-11.57,3.24-20.74,7.42-24.05a3.88,3.88,0,0,1,2.48-.79h13a3.88,3.88,0,0,1,2.48.79c4.18,3.31,7.42,12.48,7.42,24.05C390.25,467.75,390.25,468.12,390.24,468.49Z"/><circle class="cls-31" cx="417.83" cy="434.41" r="6.58"/><path class="cls-31" d="M434.24,468.49a1.7,1.7,0,0,1,0,.22,2.38,2.38,0,0,1-4.75,0v0h0v-.21c0-8.16-1.5-15.1-3.61-17.74V492.7a3.68,3.68,0,0,1-7.36,0V466.92h-1.4V492.7a3.68,3.68,0,0,1-7.36,0V450.75c-2.11,2.64-3.61,9.58-3.61,17.74v.21h0v0a2.38,2.38,0,0,1-4.75,0,1.7,1.7,0,0,1,0-.22c0-.37,0-.74,0-1.11,0-11.57,3.24-20.74,7.42-24.05a3.88,3.88,0,0,1,2.48-.79h13a3.88,3.88,0,0,1,2.48.79c4.18,3.31,7.42,12.48,7.42,24.05C434.25,467.75,434.25,468.12,434.24,468.49Z"/><circle class="cls-31" cx="461.83" cy="434.41" r="6.58"/><path class="cls-31" d="M478.24,468.49a1.7,1.7,0,0,1,0,.22,2.38,2.38,0,0,1-4.75,0v0h0v-.21c0-8.16-1.5-15.1-3.61-17.74V492.7a3.68,3.68,0,0,1-7.36,0V466.92h-1.4V492.7a3.68,3.68,0,0,1-7.36,0V450.75c-2.11,2.64-3.61,9.58-3.61,17.74v.21h0v0a2.38,2.38,0,0,1-4.75,0,1.7,1.7,0,0,1,0-.22c0-.37,0-.74,0-1.11,0-11.57,3.24-20.74,7.42-24.05a3.88,3.88,0,0,1,2.48-.79h13a3.88,3.88,0,0,1,2.48.79c4.18,3.31,7.42,12.48,7.42,24.05C478.25,467.75,478.25,468.12,478.24,468.49Z"/><g id="текст-2" data-name="текст"><rect class="cls-32" x="59.25" y="2.43" width="1242.08" height="87.03" rx="43.52"/><g id="оффициальный_партнер_МЫВМЕСТЕ_" data-name="оффициальный партнер &quot;МЫВМЕСТЕ&quot;"><text class="cls-33" transform="translate(729 52.56) scale(0.89 1)">участник прокта «МЫВМЕСТЕ»</text></g><rect class="cls-34" x="137.41" y="102.29" width="1163.93" height="68.55" rx="34.28"/><g id="оффициальный_партнер_МЫВМЕСТЕ_2" data-name="оффициальный партнер &quot;МЫВМЕСТЕ&quot;"><text class="cls-33" transform="translate(674.54 141.23) scale(0.89 1)">1 линия - 30% от каждого вознаграждения</text></g><rect class="cls-35" x="225.41" y="183.68" width="1075.93" height="68.55" rx="34.28"/><rect class="cls-36" x="313.41" y="265.06" width="987.93" height="68.55" rx="34.28"/><rect class="cls-37" x="401.41" y="346.44" width="899.93" height="68.55" rx="34.28"/><rect class="cls-38" x="483.42" y="427.83" width="817.91" height="68.55" rx="34.28"/><g id="оффициальный_партнер_МЫВМЕСТЕ_3" data-name="оффициальный партнер &quot;МЫВМЕСТЕ&quot;"><text class="cls-33" transform="translate(674.54 222.62) scale(0.89 1)">2 линия - 20% от каждого вознаграждения</text></g><g id="оффициальный_партнер_МЫВМЕСТЕ_4" data-name="оффициальный партнер &quot;МЫВМЕСТЕ&quot;"><text class="cls-33" transform="translate(674.54 304) scale(0.89 1)">3 линия - 15% от каждого вознаграждения</text></g><g id="оффициальный_партнер_МЫВМЕСТЕ_5" data-name="оффициальный партнер &quot;МЫВМЕСТЕ&quot;"><text class="cls-33" transform="translate(674.54 385.38) scale(0.89 1)">4 линия - 15% от каждого вознаграждения</text></g><g id="оффициальный_партнер_МЫВМЕСТЕ_6" data-name="оффициальный партнер &quot;МЫВМЕСТЕ&quot;"><text class="cls-33" transform="translate(674.54 466.77) scale(0.89 1)">5 линия - 20% от каждого вознаграждения</text></g></g></g></svg>